ply
format ascii 1.0
comment created by MATLAB plywrite
element vertex 500
property float x
property float y
property float z
element face 992
property list uchar short vertex_indices
end_header
-40.350132 -3.312624 44.106636 
-38.652069 -8.928729 40.906685 
-39.428818 0.139742 37.110928 
-37.011612 -9.754538 36.826298 
-38.437901 2.296170 41.811565 
-36.907509 -7.228210 45.725498 
-35.349377 1.183021 47.313820 
-35.988216 3.313609 40.503929 
-36.209187 -5.072843 35.207153 
-37.780087 -38.786602 20.993767 
-36.645866 -35.730495 23.717999 
-34.439754 -3.494781 47.668148 
-34.964565 -42.587833 23.748755 
-33.652649 -6.211979 45.776566 
-35.627354 -41.532623 18.156357 
-33.322392 -36.521362 25.593430 
-33.281097 -45.557827 17.710863 
-31.213789 -19.511305 39.082390 
-32.298370 -31.496679 18.205368 
-31.818571 -30.969984 26.279974 
-32.707012 0.444050 38.213360 
-31.123495 -15.087562 42.841003 
-26.632156 -20.523466 34.660473 
-32.099121 -26.689604 22.240892 
-30.575739 -45.839146 21.702927 
-31.609806 -38.704926 14.114040 
-31.507977 0.460832 52.622520 
-28.981377 4.971029 48.653488 
-30.970165 -5.226514 43.740646 
-29.264477 1.055915 43.417271 
-29.390724 -8.455887 36.127945 
-30.643301 -24.274645 15.112482 
-26.995796 -5.596352 55.796497 
-31.003469 -1.674705 40.625076 
-30.064676 -52.213963 4.625084 
-30.076021 -52.606258 7.269353 
-29.613207 -54.288864 9.483058 
-29.012522 -16.120766 18.366568 
-29.473770 -34.538601 13.627059 
-28.938477 -46.028141 18.293875 
-28.079496 -40.009319 24.737700 
-25.907478 -27.281656 34.588860 
-27.354898 -49.293198 10.237092 
-27.185574 -35.305470 15.487306 
-27.672514 -50.840012 2.463653 
-27.520573 -17.162918 41.727940 
-27.746733 -0.815874 55.861332 
-26.873793 -31.727921 16.132988 
-25.663071 -50.959366 6.972274 
-24.863682 -35.303173 24.641092 
-24.252829 -27.953354 40.278240 
-22.715694 -33.694523 8.608870 
-25.461845 -21.299601 26.268473 
-26.025259 -30.236811 26.859247 
-29.063789 -49.795177 1.232816 
-25.506792 -18.585415 37.502022 
-24.572990 -7.449302 50.793262 
-24.453848 -50.673878 9.486688 
-24.586807 3.310373 55.879078 
-23.997244 -5.198132 48.012215 
-26.747368 -13.171098 14.883326 
-26.495115 -45.537514 -0.170914 
-20.864193 1.430064 50.301434 
-23.195032 -24.912888 10.461128 
-23.995968 0.320054 63.497391 
-24.880898 -43.631351 3.183240 
-25.519630 -32.424412 20.229290 
-19.599724 -40.069393 10.768025 
-27.288685 -14.691333 21.882132 
-25.727358 -37.034813 21.893709 
-23.657179 -5.888137 63.465714 
-23.585712 -5.966443 16.036964 
-21.849741 -7.887904 56.184677 
-24.245384 -14.844416 11.044151 
-22.683830 -35.305885 38.198666 
-22.475155 -38.098133 20.126659 
-19.009941 -41.189075 13.710875 
-22.728863 -25.166790 39.638798 
-22.267662 -29.618534 12.858524 
-23.789640 -30.299793 11.397636 
-20.968693 -36.507309 32.864136 
-21.456593 -9.538206 61.111362 
-22.287661 -26.879658 33.056633 
-16.954847 3.142032 60.070984 
-19.876366 -43.692818 8.740608 
-21.006317 -45.191643 1.638482 
-17.777781 -27.188654 12.011683 
-21.939659 -34.376198 41.261307 
-20.994415 -27.248884 35.784393 
-22.710934 -5.973436 20.021633 
-19.575144 3.325440 63.298672 
-16.020271 -28.337080 17.421787 
-21.049316 -41.365891 7.117740 
-21.367874 -39.191376 0.834278 
-19.511719 -30.525732 44.398190 
-21.149488 -10.798029 22.981789 
-19.961517 -36.363331 33.872253 
-18.729198 -5.615457 4.381070 
-20.055174 -36.687054 37.024628 
-18.897018 -2.647597 6.286191 
-20.312485 -36.833458 39.877266 
-20.916426 -39.968094 38.764992 
-19.245672 0.139985 67.423035 
-20.848965 -31.483988 42.380657 
-15.526446 -5.150102 58.423126 
-17.468466 -10.443012 64.512123 
-16.239393 -16.637239 25.220409 
-20.157522 -39.665707 35.904934 
-16.968878 -22.079367 7.573312 
-18.753996 -40.622650 42.632214 
-17.571054 -29.112722 42.282166 
-19.277544 -39.012737 37.905998 
-17.636349 1.755956 16.813532 
-15.588206 -9.187623 58.810280 
-16.580666 -39.742554 35.163773 
-14.205899 -24.659489 20.906649 
-19.297716 -33.954750 41.178276 
-17.702333 -32.173203 1.544516 
-12.147565 -34.007759 18.480814 
-16.695913 -31.945238 7.539412 
-17.422701 -38.058598 32.011158 
-15.580417 -41.625145 37.458130 
-12.646640 -43.203461 2.692357 
-16.413250 -41.785946 41.273426 
-13.985336 -4.604887 0.719047 
-17.594769 -7.200691 67.391045 
-15.020877 -27.747990 15.646780 
-14.366385 -24.029850 10.742393 
-15.784328 -29.956219 6.777037 
-18.291744 -24.614014 24.429237 
-15.357362 7.269616 12.909974 
-13.429665 -4.514683 20.005644 
-17.196404 0.426275 56.861538 
-14.441365 -35.106808 44.612766 
-16.329231 2.783028 49.435406 
-15.605831 -30.698982 4.813807 
-12.222255 -29.451180 17.260719 
-14.215274 -44.335224 5.880404 
-15.255425 -38.310993 0.780980 
-15.068180 7.045027 23.166374 
-11.391910 -6.222255 69.061317 
-14.396315 -41.205864 7.953019 
-15.572225 -0.484504 45.304939 
-12.422931 9.870052 7.195038 
-14.236571 2.475052 66.479630 
-13.235260 6.606834 58.978035 
-12.972422 1.087256 0.795752 
-15.145679 0.100358 23.943157 
-14.416525 -3.766045 54.835293 
2.822971 -29.398373 3.102916 
-11.736998 -9.143512 65.740410 
-14.509583 2.576797 33.550251 
-14.278138 8.168935 29.745029 
-13.718165 -1.131591 35.770290 
-11.825006 -39.575264 -0.421419 
-13.521797 -7.567907 47.804909 
-13.979273 -11.060029 59.345024 
-8.344144 -12.008858 20.951292 
-12.894441 -3.471363 69.630165 
-12.053861 -37.667961 5.999316 
-12.793780 -13.454341 50.068653 
-6.913249 -35.412228 7.176623 
-11.010762 8.682900 45.297485 
-13.715260 3.951964 38.063080 
-10.816360 -35.179722 3.226946 
-9.683493 5.658673 1.172483 
-11.338164 -10.280104 45.340729 
-9.937011 -10.093445 2.358445 
-10.342606 -16.703583 22.183359 
-10.512241 12.619145 14.264768 
-11.417162 -4.679426 32.659931 
-10.667010 -20.834318 11.997085 
-9.981050 -7.063154 19.923849 
-5.421779 -35.925373 8.988853 
-8.851239 2.679841 68.794121 
-10.693052 -15.087257 54.576206 
-8.864998 -18.217957 18.180468 
-7.027340 -41.709255 8.560544 
-9.489304 7.376808 60.810040 
-9.175873 -1.337623 -0.389782 
-9.382191 10.909417 28.489922 
-8.689312 11.285761 22.847969 
-6.711002 -38.773064 2.382656 
-10.401031 8.838957 37.256737 
-7.131899 -8.797140 15.699604 
-7.940029 -16.130987 46.955162 
-8.124557 12.014106 6.969162 
-3.794075 -26.804230 9.424080 
-5.121933 0.436179 71.834625 
-4.952492 -9.268714 23.299662 
-6.308779 -13.589410 44.209930 
-7.022745 -14.171890 17.463667 
-4.426654 10.591617 38.572693 
-3.828775 -6.811320 73.319344 
-8.232462 -13.742112 10.768620 
-4.804157 -16.591129 53.336636 
-2.427458 -34.024845 10.352380 
-6.201763 9.699154 48.279705 
-3.392394 -9.930112 32.740753 
-4.730622 -4.636633 1.104588 
-5.131581 -11.758824 65.188011 
-4.819022 1.373663 0.253070 
-4.160967 4.489408 66.645149 
-4.695771 -14.002500 61.926590 
-3.374069 -8.876429 6.177722 
-2.949527 13.872334 11.718083 
-7.135000 -10.812745 86.541779 
-5.746208 -12.505373 12.926649 
-4.373219 6.575294 1.960303 
-3.222742 11.367335 30.385715 
-4.239115 -9.674798 74.058510 
-4.947295 -12.565509 94.281769 
-5.681499 -6.433525 90.524338 
-5.516647 -15.704592 85.469238 
-4.699969 12.179713 7.018012 
-5.652273 -10.447805 7.995882 
-4.896877 -11.584449 79.680344 
-2.086983 -29.193062 11.372594 
-3.756018 -16.455980 87.745743 
0.101659 11.107858 19.723343 
-1.990849 -17.565613 92.815475 
6.263954 -25.350185 4.614305 
-3.264432 -5.412867 82.781296 
-2.275411 -36.638939 10.651499 
-0.828848 -11.698638 38.004089 
-2.657963 -9.007794 5.753090 
-3.294857 -12.907440 71.269157 
-3.280256 -16.472118 83.881180 
-2.284338 -7.324580 79.032806 
-1.908952 -10.069109 96.913414 
-1.066686 -2.726928 89.744797 
0.272903 -13.730157 62.399361 
-0.883924 -34.289856 8.423838 
-1.622402 6.883050 58.684250 
2.259919 -43.040642 7.971560 
-2.119936 -4.536682 5.016619 
-1.710371 -16.126446 78.352852 
0.364865 -10.772167 8.383322 
0.928219 -15.282988 49.954517 
-1.120999 -41.442509 10.335279 
0.272381 8.121016 5.738416 
-1.153566 -0.487963 2.737267 
2.438286 -4.200651 73.105865 
0.224137 -15.491072 74.019104 
0.694658 -5.714356 95.374611 
1.371746 -9.953503 25.372795 
1.297065 2.448151 66.225662 
1.959122 -21.564432 85.890541 
0.587001 7.335356 46.175545 
1.178819 -5.255397 4.375909 
0.007018 10.376678 27.619143 
-0.037911 -19.332487 78.241425 
1.823376 -5.480861 78.444351 
2.874504 -18.895706 96.312256 
-0.508338 6.648378 5.262315 
0.484790 -12.236144 63.986256 
0.166122 12.041580 11.228201 
0.237121 1.053395 6.513241 
0.804111 -0.195832 2.894363 
2.719666 -9.116800 5.978790 
2.926452 -10.348981 32.809483 
0.949013 5.611650 58.406910 
9.396221 -32.821674 3.077589 
3.214731 -2.689796 87.284622 
2.749832 8.096001 3.363034 
3.750894 -22.276480 89.021942 
3.481174 -33.090763 8.829293 
6.845197 -13.485963 43.226910 
2.969635 -15.641396 70.246422 
2.465239 -6.706964 5.711025 
4.965488 -17.359428 75.382645 
11.066282 -34.127621 6.147707 
8.108725 -38.759953 18.571262 
3.663295 11.163884 32.706017 
7.455019 -34.421261 16.720768 
3.441110 -8.729262 4.520750 
3.503825 -13.198086 65.254913 
7.266158 -21.070225 75.387894 
5.687726 -16.029987 47.177689 
3.956944 -12.293856 97.935303 
5.590515 -16.534153 52.879478 
4.507918 1.417370 0.219245 
7.833776 -27.974676 7.073564 
5.089807 -5.201408 93.933075 
12.801470 -31.990078 11.382793 
10.046368 -32.518024 14.970081 
3.557774 7.192811 57.267136 
3.457405 -13.942818 78.109116 
5.166636 -8.973821 25.382813 
4.430006 -15.025132 78.126602 
11.602867 -35.750801 6.536449 
5.601331 13.848707 13.879887 
5.913610 -2.673390 -0.174493 
5.294835 -21.430820 80.222305 
5.089948 -6.582406 76.597282 
4.339930 -16.285391 83.037651 
5.675355 12.468609 7.232429 
5.702554 -13.407964 72.999748 
5.274215 -12.223231 12.795373 
4.656059 -20.474524 86.922485 
4.162935 -20.260788 88.023979 
6.011219 3.445986 68.019081 
7.312763 -20.385494 93.940437 
7.419712 -13.816916 61.765648 
5.673657 -19.585663 86.821327 
6.977561 -19.362537 77.994278 
9.472733 11.138137 23.296398 
8.427386 10.219640 36.402767 
8.353865 -11.309850 64.938286 
7.503624 9.833352 47.602146 
7.125948 -14.077679 11.564887 
8.061234 -28.967705 0.451744 
7.228803 -6.918097 84.483887 
6.876999 -9.873470 77.705170 
9.658848 -19.156919 75.350586 
5.618644 -13.826002 14.975691 
9.927398 -10.181021 92.542618 
9.514069 7.110882 60.253254 
6.729137 -12.243847 19.385014 
10.689130 -31.333242 8.632678 
9.639585 0.391718 70.974663 
17.205849 -44.575504 16.726845 
7.704631 9.071632 3.492636 
7.085449 -6.453380 73.523598 
8.883528 -10.307864 2.477338 
8.397474 -14.958421 82.286362 
7.201341 -10.178783 36.872665 
8.324407 -13.303722 22.294037 
10.278699 -14.277756 95.430092 
9.008091 -7.572877 19.834282 
11.246070 -4.895229 31.557020 
9.004683 -20.641001 87.749886 
8.825539 -20.048635 82.008781 
7.944657 -18.286024 19.944658 
9.505074 -21.400055 80.973854 
9.794555 4.636223 0.849715 
10.560877 -17.722063 79.535713 
12.891502 -14.984789 53.933781 
9.085469 -20.940149 79.999420 
11.207787 -27.354874 1.961527 
9.348842 -11.640299 77.814392 
8.606972 -19.223507 10.612384 
16.987549 -43.253204 11.126856 
10.029217 -17.195246 23.846367 
11.598210 12.078993 11.420588 
10.812595 -22.507784 83.490929 
12.560623 -15.089605 47.403015 
11.711638 -13.751047 85.107826 
8.853508 -16.918083 86.667358 
10.217505 -20.428516 6.996270 
11.440919 -21.854475 9.573475 
9.865868 -22.615412 18.271158 
10.231186 -18.998358 82.881828 
11.926249 -17.256413 88.863876 
11.365883 3.565450 67.395325 
13.606207 -8.929678 44.763592 
10.110985 -16.149092 86.950874 
12.595670 -21.074926 3.651891 
9.954478 -15.584088 87.285957 
13.057963 -4.862732 20.014740 
13.395140 -3.861352 0.358904 
18.930538 -38.005535 9.038577 
14.672453 -7.363772 68.276138 
11.653610 -24.193600 11.660058 
15.998371 -45.324135 13.472219 
14.307068 -11.477050 62.703838 
12.602711 8.069051 5.743981 
14.604089 -21.054453 7.267469 
14.249075 8.196872 21.301149 
14.902587 -27.060490 23.609917 
13.940258 8.478737 30.021072 
12.807237 6.811317 36.615635 
14.207470 -29.602526 19.558872 
16.484018 -32.992065 9.314591 
16.331453 -17.746920 26.271389 
12.512527 8.697105 44.218922 
18.369226 -33.698566 11.041125 
17.058764 -3.952781 68.206436 
13.906677 -1.708369 33.399780 
14.403297 -1.075345 24.504822 
14.535763 6.893219 57.507317 
17.379892 -27.246473 2.160712 
18.839289 -30.286079 13.716188 
17.994127 -33.279716 2.130786 
16.747240 -1.160057 4.445490 
14.690066 1.647503 35.909527 
15.893679 5.898063 12.200529 
18.139437 -6.600009 4.509743 
15.755561 3.817925 24.668976 
16.601084 4.247413 47.018417 
17.292217 -30.303482 8.073259 
18.846317 -39.484104 21.537954 
17.356499 2.309848 15.653294 
17.345808 -11.139828 58.263828 
21.549751 -33.747414 17.898867 
21.525215 -31.351954 4.039291 
17.634968 -8.917626 57.079552 
17.598457 0.566210 17.269712 
16.070293 -4.383092 52.809364 
17.885197 0.930699 47.262997 
22.131105 -39.185726 9.309491 
19.667921 2.059236 62.966133 
24.665367 -41.410526 25.987272 
23.598274 -36.936054 16.846827 
20.502422 -12.552017 23.605547 
19.805395 2.336126 54.333096 
18.381060 -4.896220 57.202942 
21.315041 -11.767284 62.089180 
21.972422 -36.588951 25.707703 
19.776279 -8.659834 66.719170 
23.423286 -38.918556 6.834548 
20.538502 -35.967766 21.266884 
24.361275 -32.081535 28.196545 
18.154066 0.413165 66.471115 
23.500759 -32.485714 0.531709 
23.283865 -2.283216 66.608078 
21.325600 -26.288574 11.449944 
24.749313 -37.478062 10.364744 
25.422573 -37.820061 2.483335 
22.696255 -11.310328 11.631020 
22.725435 3.121784 48.445076 
22.737200 -6.152557 17.088081 
26.408033 -5.923952 53.769615 
27.813625 -41.892124 9.041945 
24.358679 6.766214 48.386482 
24.991322 -9.025540 62.655285 
23.368595 -21.740385 12.324820 
27.711441 -47.805691 20.588737 
28.555202 -40.589752 15.538742 
26.672895 7.281857 50.413872 
26.096813 -17.604668 23.223995 
31.333223 2.430204 39.712597 
25.260965 -36.399006 0.674896 
25.469477 -23.307447 26.521784 
26.367859 -8.489099 57.947258 
24.808649 -11.397392 20.555998 
26.656422 -35.725327 14.821160 
26.813852 -2.849904 47.079849 
25.812490 -13.478143 16.708868 
24.920813 3.289870 60.995430 
28.154583 -39.693928 4.479964 
27.702391 -44.969059 24.981539 
27.454849 -37.258232 2.965506 
27.923172 3.948380 55.819660 
26.990883 -0.968133 63.167843 
29.398775 -40.463680 7.478402 
30.444603 -46.009552 19.216469 
29.636889 -34.422523 27.230602 
28.768791 -3.841516 58.967449 
27.167540 -39.409191 6.715609 
28.911678 -25.979006 16.733675 
31.241018 8.460833 42.233509 
32.306355 5.007486 35.961842 
29.596949 -27.122135 22.477648 
30.834295 5.536465 52.014854 
29.380007 -33.445324 18.894936 
32.462105 8.555920 38.447502 
32.242954 -42.827244 19.829687 
31.972300 -41.398094 26.040310 
32.108253 -45.239799 23.215376 
33.930920 -38.177017 24.447165 
33.165138 -1.776984 47.979107 
34.009758 0.927824 40.997147 
33.309048 -37.483826 21.721718 
30.264994 -1.023153 54.449089 
34.474106 6.091514 46.679852 
36.117371 9.930715 37.663712 
34.863415 1.386894 36.907009 
37.376087 2.493506 43.094406 
39.362225 6.293533 43.009575 
40.783886 3.232851 28.836121 
42.342178 -3.820246 32.594440 
44.313744 5.499751 34.064690 
45.835537 -2.684029 25.965603 
41.291805 0.416817 40.710461 
45.349125 -4.372869 32.150150 
46.166683 1.168637 35.419876 
53.220108 -4.078492 22.913465 
49.995274 -9.202028 21.779884 
51.613510 -10.809851 23.812277 
48.300903 -12.616789 17.792166 
50.538700 -12.881318 15.137074 
52.979172 -5.588161 20.038858 
51.193439 -14.825123 17.164289 
51.601406 -15.423011 9.767079 
55.109821 -16.080490 14.802251 
55.080006 -6.553445 23.980572 
53.676662 -14.687375 13.719935 
57.414585 -9.837523 14.621414 
54.904194 -17.224419 6.630674 
55.860611 -14.573391 13.177160 
58.344082 -7.897250 14.178861 
58.066711 -14.088762 14.479812 
55.518902 -10.094038 7.031600 
57.096573 -12.282977 12.982802 
56.444714 -12.835927 5.650466 
57.334835 -8.950326 10.404806 
59.626427 -9.196044 14.052285 
58.834270 -10.948200 13.382469 
0.000000 0.000000 0.000000 
3 170 147 131 
3 172 189 170 
3 172 170 131 
3 245 189 237 
3 181 180 209 
3 225 237 189 
3 235 249 225 
3 235 257 249 
3 209 250 181 
3 181 250 219 
3 225 189 184 
3 184 189 172 
3 152 180 181 
3 152 181 139 
3 139 151 152 
3 151 139 147 
3 368 370 388 
3 249 259 225 
3 237 225 259 
3 288 245 237 
3 379 330 359 
3 288 237 329 
3 249 257 269 
3 237 259 329 
3 306 370 368 
3 330 329 359 
3 250 273 306 
3 153 170 155 
3 162 163 134 
3 192 183 162 
3 192 162 197 
3 162 183 163 
3 260 224 198 
3 152 183 180 
3 183 152 163 
3 163 152 151 
3 147 153 151 
3 250 192 248 
3 209 192 250 
3 192 209 180 
3 189 245 198 
3 151 153 163 
3 170 198 190 
3 198 170 189 
3 192 180 183 
3 153 147 170 
3 286 273 248 
3 309 307 273 
3 309 273 286 
3 375 307 309 
3 375 371 307 
3 224 326 267 
3 326 224 260 
3 245 288 260 
3 385 370 371 
3 306 307 370 
3 388 378 379 
3 273 250 248 
3 306 273 307 
3 245 260 198 
3 330 260 288 
3 330 326 260 
3 378 388 385 
3 330 288 329 
3 379 378 330 
3 330 378 355 
3 370 385 388 
3 307 371 370 
3 238 190 224 
3 231 195 238 
3 248 192 233 
3 170 166 155 
3 210 193 140 
3 242 188 193 
3 231 255 243 
3 246 188 242 
3 174 158 188 
3 246 202 188 
3 188 158 193 
3 158 140 193 
3 190 185 166 
3 160 166 185 
3 192 197 233 
3 185 238 195 
3 166 160 155 
3 155 160 113 
3 185 175 160 
3 175 185 195 
3 140 150 200 
3 233 197 178 
3 200 210 140 
3 198 224 190 
3 246 233 202 
3 246 261 233 
3 261 248 233 
3 197 162 178 
3 226 210 200 
3 163 153 142 
3 163 142 134 
3 153 155 142 
3 170 190 166 
3 238 185 190 
3 313 308 323 
3 267 278 238 
3 238 280 231 
3 224 267 238 
3 242 301 246 
3 242 320 301 
3 323 377 320 
3 323 320 242 
3 362 377 323 
3 346 267 355 
3 346 278 267 
3 389 385 371 
3 389 371 375 
3 399 385 389 
3 280 278 346 
3 396 346 355 
3 393 346 396 
3 280 346 337 
3 301 286 246 
3 317 286 301 
3 309 286 317 
3 377 413 320 
3 286 261 246 
3 261 286 248 
3 375 309 380 
3 362 323 308 
3 231 276 255 
3 399 378 385 
3 267 326 355 
3 330 355 326 
3 399 355 378 
3 280 238 278 
3 243 226 200 
3 193 228 242 
3 228 210 216 
3 210 228 193 
3 226 216 210 
3 226 236 216 
3 231 243 200 
3 268 243 255 
3 268 270 243 
3 226 243 236 
3 308 313 297 
3 252 294 242 
3 228 252 242 
3 323 294 313 
3 268 297 270 
3 242 294 323 
3 270 297 313 
3 308 297 276 
3 297 268 276 
3 255 276 268 
3 227 206 216 
3 236 227 216 
3 243 270 236 
3 294 252 263 
3 313 294 312 
3 345 299 334 
3 206 227 218 
3 220 206 218 
3 216 206 222 
3 222 206 212 
3 212 211 229 
3 218 247 220 
3 212 229 244 
3 216 222 228 
3 229 253 279 
3 220 253 211 
3 211 253 229 
3 206 220 211 
3 220 247 265 
3 206 211 212 
3 277 270 314 
3 334 299 293 
3 251 227 236 
3 277 251 236 
3 277 236 270 
3 293 247 251 
3 253 220 265 
3 251 247 227 
3 345 331 304 
3 293 251 277 
3 314 338 277 
3 338 293 277 
3 299 247 293 
3 332 334 293 
3 227 218 213 
3 213 218 227 
3 331 265 304 
3 265 247 299 
3 331 302 265 
3 345 304 299 
3 302 253 265 
3 218 227 247 
3 265 299 300 
3 300 304 265 
3 305 289 293 
3 293 295 332 
3 338 336 293 
3 336 305 293 
3 289 287 293 
3 287 295 293 
3 312 263 316 
3 230 263 252 
3 230 252 222 
3 263 312 294 
3 244 283 230 
3 279 283 244 
3 212 230 222 
3 347 312 316 
3 253 328 279 
3 244 230 212 
3 229 279 244 
3 222 252 228 
3 328 316 283 
3 279 328 283 
3 316 263 283 
3 302 328 253 
3 283 263 230 
3 347 352 336 
3 347 353 356 
3 347 316 353 
3 312 340 313 
3 313 314 270 
3 313 340 314 
3 340 347 336 
3 340 336 314 
3 336 338 314 
3 336 352 334 
3 312 347 340 
3 348 353 331 
3 356 348 352 
3 348 356 353 
3 334 332 336 
3 345 334 352 
3 353 302 331 
3 331 345 352 
3 316 328 353 
3 352 348 331 
3 347 356 352 
3 328 302 353 
3 332 325 336 
3 325 332 295 
3 289 305 336 
3 336 325 289 
3 325 287 289 
3 325 295 287 
3 356 348 358 
3 125 150 140 
3 200 203 231 
3 188 202 174 
3 178 174 202 
3 195 203 175 
3 175 150 156 
3 203 150 175 
3 142 155 148 
3 233 178 202 
3 178 144 174 
3 178 145 144 
3 134 145 162 
3 134 142 132 
3 148 132 142 
3 195 231 203 
3 156 105 81 
3 132 148 104 
3 175 156 113 
3 175 113 160 
3 113 104 148 
3 156 81 113 
3 83 132 62 
3 102 140 158 
3 102 70 125 
3 102 125 140 
3 64 70 102 
3 102 90 64 
3 134 132 83 
3 150 105 156 
3 104 113 72 
3 62 132 104 
3 90 144 83 
3 145 178 162 
3 145 134 83 
3 145 83 144 
3 174 144 158 
3 144 102 158 
3 144 90 102 
3 70 105 125 
3 105 150 125 
3 200 150 203 
3 113 148 155 
3 46 32 70 
3 59 62 104 
3 83 58 90 
3 56 59 104 
3 56 104 72 
3 32 72 81 
3 58 64 90 
3 46 70 64 
3 70 81 105 
3 32 81 70 
3 81 72 113 
3 83 62 27 
3 72 32 13 
3 58 46 64 
3 4 0 6 
3 13 0 5 
3 29 33 20 
3 7 29 20 
3 7 20 2 
3 27 58 83 
3 11 26 6 
3 0 13 11 
3 4 27 7 
3 62 29 7 
3 62 7 27 
3 33 59 28 
3 32 26 11 
3 11 13 32 
3 13 28 56 
3 56 28 59 
3 29 59 33 
3 27 4 6 
3 11 6 0 
3 27 6 26 
3 26 46 58 
3 56 72 13 
3 46 26 32 
3 58 27 26 
3 62 59 29 
3 1 2 3 
3 0 4 2 
3 2 4 7 
3 45 13 21 
3 13 45 28 
3 28 55 33 
3 30 22 8 
3 28 45 55 
3 30 55 22 
3 8 3 2 
3 1 0 2 
3 30 20 33 
3 20 30 8 
3 2 20 8 
3 22 41 3 
3 45 21 50 
3 21 17 50 
3 45 77 55 
3 50 77 45 
3 55 77 88 
3 22 55 88 
3 1 5 0 
3 13 5 21 
3 41 22 82 
3 22 88 82 
3 41 50 17 
3 21 5 17 
3 3 17 1 
3 1 17 5 
3 17 3 41 
3 8 22 3 
3 33 55 30 
3 80 74 41 
3 50 41 74 
3 50 94 77 
3 74 87 50 
3 80 82 96 
3 80 41 82 
3 116 100 98 
3 88 98 96 
3 88 96 82 
3 116 98 88 
3 88 77 110 
3 103 116 110 
3 116 88 110 
3 74 100 87 
3 87 94 50 
3 94 87 103 
3 77 94 110 
3 133 103 110 
3 94 103 133 
3 110 94 133 
3 116 103 109 
3 100 109 87 
3 87 109 103 
3 123 100 116 
3 109 100 123 
3 109 123 116 
3 100 101 111 
3 74 101 100 
3 101 98 111 
3 101 74 98 
3 98 100 111 
3 111 101 121 
3 121 101 111 
3 107 96 114 
3 98 74 107 
3 96 107 74 
3 96 98 114 
3 98 107 114 
3 74 80 96 
3 96 80 120 
3 96 120 80 
3 303 276 231 
3 320 354 301 
3 354 317 301 
3 355 398 396 
3 365 303 337 
3 303 280 337 
3 362 303 365 
3 389 375 380 
3 355 399 398 
3 354 380 317 
3 413 354 320 
3 405 399 389 
3 303 231 280 
3 362 365 409 
3 393 365 337 
3 396 398 406 
3 393 337 346 
3 393 434 407 
3 407 365 393 
3 377 409 415 
3 362 409 377 
3 409 425 415 
3 415 425 444 
3 401 380 354 
3 354 413 401 
3 405 380 401 
3 389 380 405 
3 406 399 405 
3 396 406 422 
3 380 309 317 
3 398 399 406 
3 377 415 413 
3 401 413 439 
3 409 365 407 
3 425 409 407 
3 303 308 276 
3 362 308 303 
3 444 425 448 
3 439 415 444 
3 406 405 420 
3 448 443 444 
3 429 401 439 
3 443 429 439 
3 424 401 429 
3 464 448 434 
3 464 434 422 
3 406 431 437 
3 420 431 406 
3 406 437 422 
3 422 393 396 
3 405 401 424 
3 413 415 439 
3 448 464 443 
3 425 434 448 
3 422 434 393 
3 434 425 407 
3 444 443 439 
3 464 454 443 
3 461 464 422 
3 424 420 405 
3 465 451 429 
3 467 462 431 
3 469 466 465 
3 452 424 456 
3 424 451 456 
3 451 424 429 
3 468 465 464 
3 465 454 464 
3 462 468 461 
3 437 431 462 
3 431 420 452 
3 420 424 452 
3 462 461 422 
3 462 422 437 
3 465 466 451 
3 468 469 465 
3 468 464 461 
3 454 429 443 
3 472 466 469 
3 468 462 467 
3 474 469 468 
3 429 454 465 
3 456 451 466 
3 472 470 466 
3 471 467 473 
3 466 470 456 
3 470 452 456 
3 467 471 468 
3 472 486 477 
3 476 486 472 
3 479 476 475 
3 486 476 479 
3 477 473 470 
3 478 475 471 
3 478 471 473 
3 479 475 478 
3 473 477 482 
3 452 467 431 
3 471 474 468 
3 474 471 475 
3 476 469 474 
3 472 469 476 
3 475 476 474 
3 472 477 470 
3 478 473 482 
3 470 473 452 
3 473 467 452 
3 488 490 487 
3 487 482 488 
3 498 497 492 
3 479 478 480 
3 479 485 492 
3 479 492 486 
3 497 491 477 
3 486 497 477 
3 485 483 487 
3 494 490 488 
3 491 488 482 
3 477 491 482 
3 487 481 482 
3 480 478 482 
3 483 481 487 
3 492 497 486 
3 480 483 479 
3 479 483 485 
3 481 480 482 
3 481 483 484 
3 484 483 480 
3 480 481 484 
3 489 485 487 
3 490 485 489 
3 487 490 489 
3 492 485 490 
3 494 492 495 
3 495 492 490 
3 495 490 494 
3 498 492 494 
3 494 488 498 
3 493 494 498 
3 493 498 494 
3 497 498 488 
3 488 491 496 
3 497 488 496 
3 491 497 496 
3 207 235 215 
3 171 127 167 
3 73 97 63 
3 97 124 63 
3 108 63 124 
3 108 167 127 
3 176 168 129 
3 176 129 115 
3 60 73 31 
3 95 106 131 
3 95 131 112 
3 89 95 112 
3 60 97 73 
3 167 108 124 
3 106 168 157 
3 89 68 95 
3 157 168 191 
3 168 176 191 
3 131 106 157 
3 99 97 60 
3 60 71 99 
3 235 207 215 
3 225 207 235 
3 225 184 207 
3 235 207 204 
3 241 235 204 
3 257 235 241 
3 240 256 257 
3 240 257 241 
3 208 201 165 
3 186 208 165 
3 186 214 208 
3 97 99 146 
3 157 172 131 
3 184 157 207 
3 172 157 184 
3 147 112 131 
3 169 130 139 
3 139 181 169 
3 143 130 169 
3 157 191 207 
3 191 176 207 
3 214 240 208 
3 214 205 240 
3 167 199 204 
3 199 201 241 
3 207 176 194 
3 194 176 171 
3 181 205 169 
3 112 147 139 
3 37 89 71 
3 37 71 60 
3 171 176 115 
3 129 168 106 
3 52 106 95 
3 68 52 95 
3 37 68 89 
3 167 194 171 
3 204 207 194 
3 167 204 194 
3 89 112 71 
3 179 167 124 
3 146 179 124 
3 165 146 143 
3 179 199 167 
3 112 130 99 
3 165 201 179 
3 165 179 146 
3 201 199 179 
3 241 204 199 
3 139 130 112 
3 205 219 256 
3 112 99 71 
3 143 99 130 
3 146 99 143 
3 97 146 124 
3 165 143 186 
3 169 186 143 
3 205 186 169 
3 181 219 205 
3 205 214 186 
3 205 256 240 
3 240 241 201 
3 240 201 208 
3 129 106 53 
3 47 43 66 
3 25 43 47 
3 40 75 69 
3 66 43 69 
3 60 31 37 
3 171 115 91 
3 106 52 53 
3 37 23 68 
3 68 19 52 
3 24 40 12 
3 31 73 38 
3 43 91 69 
3 38 18 31 
3 18 38 25 
3 18 25 14 
3 18 14 9 
3 38 43 25 
3 53 15 49 
3 69 91 40 
3 38 73 63 
3 38 63 78 
3 91 78 127 
3 40 115 49 
3 53 52 19 
3 49 15 40 
3 19 23 10 
3 91 43 78 
3 115 40 91 
3 78 43 38 
3 23 9 10 
3 18 9 23 
3 23 31 18 
3 37 31 23 
3 68 23 19 
3 78 108 127 
3 63 108 78 
3 171 91 127 
3 49 115 129 
3 15 12 40 
3 15 53 19 
3 53 49 129 
3 16 67 39 
3 40 24 75 
3 217 187 136 
3 149 221 339 
3 311 149 339 
3 271 319 266 
3 262 149 311 
3 51 25 79 
3 86 128 79 
3 79 25 47 
3 79 47 86 
3 67 16 25 
3 16 14 25 
3 75 24 76 
3 24 39 76 
3 173 76 67 
3 173 67 161 
3 39 67 76 
3 118 69 75 
3 66 69 118 
3 24 16 39 
3 161 149 262 
3 173 262 271 
3 217 282 221 
3 149 67 51 
3 149 128 221 
3 128 86 221 
3 86 187 221 
3 118 196 217 
3 196 266 217 
3 118 76 196 
3 196 271 266 
3 196 76 173 
3 196 173 271 
3 173 161 262 
3 118 217 136 
3 126 136 187 
3 149 51 128 
3 86 126 187 
3 51 79 128 
3 136 66 118 
3 126 66 136 
3 14 16 9 
3 12 15 10 
3 12 9 16 
3 12 16 24 
3 10 9 12 
3 10 15 19 
3 51 67 25 
3 67 149 161 
3 75 76 118 
3 66 86 47 
3 126 86 66 
3 266 319 282 
3 217 266 282 
3 187 217 221 
3 414 418 383 
3 262 383 410 
3 400 373 271 
3 262 311 339 
3 383 262 339 
3 373 319 271 
3 410 423 400 
3 410 383 418 
3 417 373 400 
3 390 417 395 
3 373 417 390 
3 414 381 395 
3 350 395 357 
3 381 357 395 
3 339 381 383 
3 357 221 349 
3 357 339 221 
3 357 381 339 
3 262 400 271 
3 414 383 381 
3 262 410 400 
3 350 373 390 
3 349 221 350 
3 350 221 282 
3 373 350 319 
3 350 282 319 
3 357 349 350 
3 350 390 395 
3 410 418 440 
3 442 418 432 
3 417 449 442 
3 400 423 417 
3 418 414 432 
3 449 417 445 
3 442 414 395 
3 395 417 442 
3 440 442 449 
3 440 418 442 
3 414 442 432 
3 423 410 449 
3 423 449 445 
3 423 445 417 
3 410 440 449 
3 363 341 324 
3 416 367 360 
3 363 324 367 
3 369 333 351 
3 363 351 341 
3 343 333 369 
3 421 397 435 
3 419 384 421 
3 374 404 359 
3 397 404 435 
3 438 421 435 
3 367 324 360 
3 333 310 341 
3 343 374 327 
3 310 324 341 
3 310 333 315 
3 343 327 315 
3 315 333 343 
3 269 298 249 
3 298 259 249 
3 298 329 259 
3 269 275 298 
3 269 257 258 
3 257 256 254 
3 257 254 258 
3 384 366 386 
3 281 264 322 
3 281 322 335 
3 264 296 322 
3 384 387 360 
3 298 318 329 
3 329 327 359 
3 397 379 359 
3 397 388 379 
3 298 275 310 
3 298 327 318 
3 327 298 315 
3 264 256 296 
3 281 254 264 
3 258 281 292 
3 269 258 275 
3 392 388 397 
3 359 404 397 
3 329 318 327 
3 310 315 298 
3 426 387 419 
3 416 360 387 
3 333 341 351 
3 404 430 435 
3 416 387 426 
3 359 327 374 
3 438 419 421 
3 310 275 324 
3 421 392 397 
3 324 292 360 
3 386 392 384 
3 384 360 335 
3 384 335 366 
3 292 335 360 
3 275 292 324 
3 292 281 335 
3 275 258 292 
3 392 386 368 
3 256 291 296 
3 344 306 368 
3 291 306 344 
3 392 368 388 
3 384 392 421 
3 384 419 387 
3 386 344 368 
3 344 386 366 
3 366 335 322 
3 344 366 322 
3 344 322 296 
3 296 291 344 
3 291 219 306 
3 256 219 291 
3 306 219 250 
3 254 256 264 
3 281 258 254 
3 447 412 408 
3 394 411 403 
3 394 403 428 
3 457 446 428 
3 402 321 441 
3 402 411 391 
3 453 435 430 
3 453 450 438 
3 453 438 435 
3 450 419 438 
3 382 363 367 
3 372 351 363 
3 369 351 372 
3 382 372 363 
3 419 450 426 
3 455 463 457 
3 436 428 403 
3 402 447 408 
3 436 426 450 
3 403 411 372 
3 450 455 436 
3 428 436 457 
3 436 455 457 
3 433 447 460 
3 426 436 416 
3 382 416 436 
3 369 372 402 
3 369 402 408 
3 433 412 447 
3 453 433 460 
3 403 372 382 
3 436 403 382 
3 411 402 372 
3 460 463 453 
3 463 455 453 
3 455 450 453 
3 453 430 433 
3 374 433 404 
3 430 404 433 
3 374 412 433 
3 416 382 367 
3 402 441 447 
3 369 408 412 
3 374 343 369 
3 369 412 374 
3 232 223 274 
3 164 182 138 
3 138 182 154 
3 141 137 177 
3 182 122 154 
3 427 446 459 
3 342 364 234 
3 428 361 376 
3 394 428 376 
3 394 376 284 
3 446 342 428 
3 446 427 342 
3 321 391 272 
3 364 321 234 
3 364 427 321 
3 391 411 272 
3 402 391 321 
3 441 427 459 
3 441 321 427 
3 182 234 122 
3 122 234 137 
3 159 223 164 
3 361 342 182 
3 164 290 182 
3 164 284 290 
3 164 232 284 
3 239 272 223 
3 177 239 223 
3 321 272 239 
3 137 239 177 
3 234 321 239 
3 234 239 137 
3 274 223 272 
3 232 274 285 
3 290 361 182 
3 285 284 232 
3 290 376 361 
3 376 290 284 
3 272 411 274 
3 411 394 285 
3 411 285 274 
3 460 457 463 
3 459 446 457 
3 459 457 460 
3 458 447 441 
3 460 458 459 
3 458 441 459 
3 447 458 460 
3 342 361 428 
3 182 342 234 
3 284 285 394 
3 364 342 427 
3 141 177 159 
3 177 223 159 
3 223 232 164 
3 44 61 85 
3 85 122 48 
3 84 57 137 
3 138 154 122 
3 138 122 85 
3 141 84 137 
3 57 36 48 
3 44 85 48 
3 84 42 57 
3 65 42 92 
3 42 84 92 
3 93 61 65 
3 65 119 117 
3 117 93 65 
3 85 93 138 
3 164 117 135 
3 138 117 164 
3 138 93 117 
3 57 122 137 
3 93 85 61 
3 48 122 57 
3 84 119 92 
3 164 135 119 
3 159 164 119 
3 141 119 84 
3 159 119 141 
3 119 135 117 
3 92 119 65 
3 44 48 34 
3 34 42 54 
3 34 35 42 
3 36 57 42 
3 34 54 44 
3 54 61 44 
3 61 54 65 
3 54 42 65 
3 48 36 35 
3 42 35 36 
3 34 48 35 
