ply
format ascii 1.0
comment created by MATLAB plywrite
element vertex 500
property float x
property float y
property float z
element face 993
property list uchar short vertex_indices
end_header
-37.398960 -9.420621 63.329308 
-37.329159 -3.033732 62.231277 
-35.960754 -8.478441 53.424820 
-36.567032 -4.621013 56.754494 
-35.876064 -7.823122 67.065193 
-33.916176 -12.920160 60.128750 
-34.226124 -12.082668 53.221275 
-35.263557 -2.220364 65.126434 
-31.668167 -3.666365 53.696819 
-32.671341 -11.789782 67.596252 
-32.259865 -11.575266 63.570366 
-32.555016 -11.661291 74.509003 
-31.773300 -5.824162 73.898834 
-30.395184 -4.435850 72.358742 
-30.308121 -2.406964 62.553432 
-29.647821 -13.107613 58.025326 
-27.423264 -10.999953 38.838879 
-28.001680 -17.096722 75.516624 
-27.365171 -14.670303 36.332699 
-29.569708 -13.690052 78.489975 
-27.075468 -10.283342 81.669395 
-28.664391 -7.582139 62.529705 
-28.520952 -5.457284 64.035004 
-27.852623 -13.662273 50.669628 
-28.393522 -5.455897 52.472790 
-26.659586 -9.486197 44.272869 
-28.591375 -17.036182 85.356171 
-27.744671 -15.082448 68.108116 
-27.505590 -20.132563 79.770096 
-26.585766 -6.838359 70.452759 
-28.333683 -15.042805 7.004703 
-22.541344 -16.938286 37.491928 
-28.247587 -20.161812 3.997537 
-25.292595 -12.952043 47.364246 
-23.766573 -7.345619 75.336319 
-27.015219 -17.449047 0.415040 
-21.967417 -11.666673 85.271133 
-26.787151 -4.365518 10.590714 
-26.884888 -13.087330 10.354774 
-26.865906 -12.236814 30.237797 
-27.285112 -23.548880 7.716155 
-26.246161 -15.467465 29.639101 
-24.896229 -19.415571 90.284248 
-26.280519 -12.753281 23.366291 
-22.164955 -12.961719 71.227448 
-24.265192 -24.236492 83.970535 
-26.559317 -15.891327 18.759226 
-24.855209 -21.938990 0.778756 
-25.781784 -11.806069 10.909439 
-22.787354 -19.402431 75.997047 
-26.421408 -12.299258 20.759247 
-26.222244 -14.417858 15.697750 
-23.557358 -20.402657 16.386242 
-25.163157 -14.056245 27.382265 
-21.722620 -14.302284 89.971077 
-23.576460 -2.875886 4.528135 
-23.308470 -18.083740 29.381588 
-24.062532 -15.614911 -0.390109 
-24.218725 -5.399185 14.955166 
-21.258821 -14.152104 38.633774 
-22.429228 -24.279596 80.000114 
-24.350843 -24.655035 10.057989 
-23.649803 -16.334362 27.401424 
-21.152149 -10.192341 79.318741 
-23.022144 -24.681881 6.239197 
-21.272804 -16.029016 29.229683 
-23.216312 -5.363589 19.616772 
-22.844891 3.337179 14.285669 
-20.701036 -14.806872 75.529091 
-22.266926 -6.351411 35.821091 
-23.161728 -11.933594 35.847137 
-23.505295 -15.434365 25.708494 
-22.899519 -20.458338 19.823835 
-20.474478 -13.182644 35.447559 
-14.580194 18.958605 12.499331 
-21.714630 -20.020798 0.939351 
-21.010262 -0.716450 34.929245 
-19.368418 -25.349646 87.875923 
-20.039490 -12.650590 13.258051 
-17.695345 -1.460915 20.418257 
-21.407579 -17.884945 28.133595 
-20.363823 -8.340729 3.199958 
-17.178343 -6.516879 15.025214 
-19.048750 -22.577726 15.920549 
-18.429598 9.950399 8.019921 
-16.662975 -16.960968 33.583649 
-19.742622 -1.233591 16.767445 
-17.770414 -13.433391 32.289948 
-16.962402 -13.878882 35.470947 
-18.243404 -19.211643 4.747245 
-20.632813 -19.644327 28.523386 
-19.385246 -22.130184 9.612786 
-19.185020 -17.254648 33.272228 
-18.502571 2.027825 4.743467 
-18.490023 -14.890201 8.143947 
-17.303432 -21.138180 79.752518 
-18.573729 -7.548403 86.418159 
-19.138351 -18.501915 28.078472 
-18.420349 -1.569156 72.882202 
-18.869535 -26.522160 83.751961 
-18.541288 -20.737934 21.496553 
-17.768997 -18.429605 81.264191 
-14.088158 9.993871 37.871204 
-17.443514 -16.075285 93.178719 
-18.726923 1.669341 28.774687 
-17.929258 -11.415926 6.343704 
-16.085762 -17.326998 27.765013 
-18.307472 -11.304032 74.654533 
-17.160601 1.653726 45.503952 
-19.606995 -6.676151 72.299934 
-17.880024 -21.636404 91.663773 
-15.213679 -2.354789 15.265797 
-17.275412 -2.186938 45.915241 
-13.918973 -24.830961 82.068527 
-16.351257 -20.926353 12.895451 
-15.826778 -15.305035 34.589916 
-16.926678 -6.650897 67.198990 
-16.470003 -0.625425 66.524361 
-14.982188 -24.245905 89.950027 
-16.200077 2.090418 75.501282 
-15.392796 6.748941 42.943779 
-14.166828 -10.179820 92.430878 
-14.959421 -16.455509 29.258211 
-16.937370 -1.261876 61.169296 
-14.682977 -3.606689 85.153694 
-16.482073 4.324297 59.886562 
-11.339862 -5.541809 18.173094 
-14.928648 -15.220925 10.678976 
-16.225737 -1.596850 52.737862 
-15.840500 6.093096 51.726837 
-14.536170 -10.824709 66.363022 
-14.148317 -15.643349 69.842247 
-9.524882 21.123085 15.346225 
-14.814493 12.478339 6.780370 
-16.470203 -22.613342 78.092560 
-14.354593 8.052901 33.071613 
-12.694784 10.529656 14.972659 
-14.494838 3.448489 66.770004 
-13.818465 -8.012262 61.254887 
-12.910227 -1.476897 8.173555 
-11.945590 24.833128 7.585506 
-14.090826 -5.232010 47.825726 
-12.503074 -16.085833 23.100399 
-13.110936 -16.308838 29.761267 
-12.933449 4.024495 28.008894 
-12.733221 -21.259520 70.440323 
-13.733272 39.496067 3.936145 
-14.220061 37.803978 8.361793 
-8.593783 26.894718 5.415679 
-13.018795 41.362247 4.625956 
-12.668191 25.817146 12.804098 
-13.052154 -21.836796 95.333618 
-10.915761 12.477858 45.634449 
-12.928670 33.135700 8.102265 
-7.744785 4.063293 29.329596 
-10.463845 7.061637 62.907688 
-11.411555 -7.071471 46.996853 
-12.164196 -1.607919 11.708415 
-12.271376 13.941251 8.096691 
-12.561657 31.937906 13.283425 
-12.344377 -13.195168 16.018538 
-7.172611 -27.377958 95.281364 
-10.116178 8.606623 31.466064 
-10.900638 4.047051 76.507751 
-10.676241 9.323064 55.095047 
-7.127773 -25.792519 88.406517 
-10.215658 -16.205399 96.799477 
-9.213692 -15.129926 66.082100 
-11.131763 27.168236 19.193247 
-10.893252 39.041927 2.703208 
-11.042337 10.156849 11.751696 
-5.870828 -25.899075 83.174789 
-4.238007 -27.595865 98.230484 
-10.522471 43.208275 3.279756 
-10.916655 35.827072 9.708771 
-8.737457 12.543776 36.529926 
-8.072437 38.361980 1.572147 
-8.836387 43.278259 1.681958 
-7.155330 -20.922689 67.320221 
-6.665659 7.901325 63.780972 
-10.386942 -24.603397 74.245979 
-7.485203 -5.900014 89.282715 
-9.001529 18.479294 11.131460 
-4.797614 -10.272647 39.182503 
-6.711740 21.554375 7.412197 
-7.396406 -12.800874 25.092291 
-9.075462 24.094448 19.521891 
-4.398708 -10.679658 48.784695 
-7.524025 41.901119 2.880026 
-5.229706 26.116613 18.752516 
-5.704829 -5.221870 23.907421 
-4.820466 -12.053088 61.289371 
-5.719712 37.806858 0.490199 
-3.818167 -12.220686 54.486259 
-3.716551 -6.931474 27.090689 
-4.488238 14.480487 44.945316 
-7.914661 -37.761585 100.698524 
-7.187200 -40.149929 99.231163 
-1.303605 9.338868 54.539185 
-1.619653 -8.046495 37.230247 
-6.644720 -37.416992 97.914093 
-4.302806 -17.067928 96.404381 
-7.166182 44.606834 1.376857 
-7.204851 -46.008892 99.764641 
-5.574951 -42.967152 106.478706 
-5.683973 -37.604427 105.087280 
-4.998827 44.074512 0.616249 
-5.660281 -50.642109 97.100632 
-5.092142 -24.481504 73.866051 
-5.447599 1.456537 78.406311 
-5.760112 25.936401 10.294798 
-3.006235 -14.441882 65.205521 
-6.108289 -33.795372 91.494286 
-4.286063 -47.228188 105.954536 
-4.760098 -30.417700 98.275566 
-5.485545 -45.730091 90.785957 
-5.182439 -9.731460 92.473495 
-5.389366 31.732780 8.361836 
-4.761202 -32.643375 93.681847 
-4.121953 11.761619 35.684074 
-6.808198 -42.162029 91.701500 
-3.942339 -44.120792 91.312759 
-3.359626 -37.847237 86.665611 
-4.591103 39.091408 3.305260 
-2.151469 7.865091 60.190681 
-2.114912 -33.737385 84.724701 
-3.212731 -3.543162 88.922943 
-3.783570 0.056166 31.884642 
-2.291064 -26.013182 86.614922 
-1.063596 -45.845963 88.609673 
0.330999 -32.201458 88.717133 
-0.571114 5.995724 78.785355 
-1.510146 -21.785416 98.068596 
-3.751217 -43.382210 91.248985 
-3.007370 -38.656567 91.633087 
0.454839 2.428308 34.279507 
0.319650 -32.755978 104.166939 
-0.716372 -40.133167 85.914848 
-0.190998 -51.817982 100.217453 
-0.993042 -37.826588 107.649788 
-0.153530 -3.836504 37.343678 
0.942711 -21.349566 74.625038 
-0.463943 6.939352 34.406906 
-0.517045 -34.088154 91.656464 
-0.130273 11.877264 39.988209 
-2.877649 -51.563999 93.318695 
-2.201538 -41.531673 87.244987 
0.912396 -18.350010 70.410454 
1.118511 -9.150449 37.099281 
0.427293 -24.180069 82.672318 
-0.534036 -23.872812 85.787430 
1.179219 -31.481247 101.811241 
2.262710 -39.876556 108.393677 
0.722439 8.396340 66.708389 
0.233852 -12.157751 97.963219 
-0.336685 -6.981695 34.808788 
-0.232993 -33.451202 93.105507 
2.528778 -2.697512 91.368324 
-1.029312 -42.808105 84.587975 
2.478434 -47.875500 106.312164 
1.364342 -35.218048 89.281189 
-0.023352 11.797081 46.572037 
-0.294341 -2.770665 35.038193 
1.738422 -38.062744 86.083755 
1.196851 -41.486439 87.507858 
0.860907 -34.151299 84.058533 
1.840658 -38.774551 92.103561 
1.489772 -25.160049 87.439072 
1.738815 -50.755821 92.363434 
2.275829 -26.945791 98.714638 
3.218393 -37.537773 86.896454 
3.127386 -11.414136 55.782028 
1.810596 11.769901 40.593071 
2.836991 1.721506 86.820747 
3.468434 -51.663960 97.219505 
0.343860 -17.069056 47.101292 
0.675193 -13.978670 51.802410 
1.490984 0.825586 37.559494 
1.162869 8.312993 37.752491 
1.510355 -44.091503 91.037880 
0.126871 -43.268208 90.359764 
2.574078 -27.034979 52.043877 
6.579447 -17.399458 70.079224 
5.561012 -13.010091 99.230873 
4.910131 -44.866798 90.928947 
3.931043 14.413005 45.923088 
2.295775 -5.629408 36.456493 
2.435003 -9.036765 40.726391 
1.733289 -11.073485 48.303978 
4.602496 -11.841793 65.559517 
4.067986 -6.875467 35.692467 
2.310182 0.331348 34.761337 
3.775993 -35.743713 49.128151 
2.777010 -10.568832 53.313541 
7.398661 9.623208 57.239582 
6.498417 -21.359877 75.229317 
5.539675 -42.496941 90.327621 
4.152808 -21.091606 55.906731 
1.760409 -11.287289 44.417549 
4.199640 -17.365210 39.868717 
6.610366 -32.073914 95.126968 
4.222239 -23.633055 89.991135 
6.227912 -18.334576 98.757545 
4.527445 -33.978783 46.472782 
3.427489 -41.689796 55.134884 
7.156109 5.845507 78.415085 
4.873145 -41.437134 59.344761 
5.531812 -33.418304 93.283188 
3.199167 -36.657627 54.709095 
4.520758 -43.277618 56.731121 
4.647222 -9.855362 45.647900 
7.010464 -46.691940 102.542435 
5.109134 -39.607952 56.845936 
6.757090 4.191134 33.230473 
6.034535 -34.746426 90.458519 
5.742368 -49.362202 96.003365 
4.381984 -25.321188 96.306404 
7.263398 -40.014450 105.041527 
6.304599 -1.610586 32.952984 
5.110560 -32.296101 100.883995 
4.740591 -44.251896 49.509449 
2.483250 -11.545872 60.888870 
7.033464 -3.673956 93.149323 
6.375314 6.724110 70.441109 
5.641291 -28.779854 58.138035 
5.157899 -47.034649 53.180111 
5.956419 8.795951 35.847427 
7.518003 -39.020863 58.676575 
6.778470 -9.229300 35.635143 
9.381169 -21.081097 94.773102 
7.579405 -41.514442 47.361897 
6.270549 -48.447781 51.277180 
6.693547 -29.513760 42.951607 
7.700587 12.001587 39.271572 
10.469038 12.633273 48.906349 
7.688460 -50.240097 52.186146 
6.869831 -48.240223 56.789680 
9.473886 -8.059130 51.704441 
7.072216 -45.176121 61.131382 
6.135006 -23.089994 84.399200 
7.725060 -40.822685 56.993141 
8.491040 -10.131394 68.364311 
8.566157 -17.169382 57.351662 
7.370371 -46.850983 56.700516 
7.796160 -50.312862 57.181084 
7.445471 -38.962173 97.767761 
10.500589 -6.260279 53.249966 
8.178364 -0.950581 88.450012 
9.906114 -35.864750 58.247517 
8.301852 -44.225166 42.630020 
9.115501 -42.059914 60.995518 
10.396210 -43.545921 58.880184 
7.350048 -50.638081 50.095264 
13.559373 -38.616623 61.224434 
7.975477 -19.959780 38.244873 
7.518021 -47.345501 58.872623 
9.388188 -6.907046 65.090736 
12.703565 -39.714302 47.096333 
8.245545 -40.012398 31.441023 
9.666166 -47.174080 60.797329 
9.727088 -51.459091 56.479420 
8.511924 -42.937393 31.464661 
14.908754 -19.946501 95.112915 
11.971548 -16.039930 72.111275 
9.744883 -48.658459 57.663254 
10.767527 -3.753567 33.173588 
11.077020 6.424785 64.587715 
13.424019 -20.672049 85.129684 
11.157817 -24.997046 58.804157 
11.297229 8.644553 36.779823 
9.886406 3.240852 70.987495 
12.204384 -48.072205 39.669369 
10.775694 -37.466652 44.155384 
12.119733 -48.294151 55.929878 
11.968832 11.684793 42.593189 
11.405037 -51.079090 51.224258 
10.583426 -48.598801 56.316856 
11.674990 -10.464828 73.121582 
12.342450 -1.250986 83.417992 
11.058145 -36.412754 31.831604 
12.600793 -31.484234 44.068802 
12.220835 -22.191011 39.068710 
11.486346 -0.236072 72.975822 
12.963814 -1.215628 77.752357 
13.400996 5.883419 57.131451 
11.193360 -4.143589 69.366066 
14.411807 -17.725355 57.670612 
13.896903 -6.416553 92.856476 
12.332875 -49.139885 57.856400 
15.041490 -40.250645 56.261177 
13.896461 -41.751419 15.728359 
11.771071 -51.241474 51.397511 
13.466059 -47.968945 54.128338 
13.193140 2.262232 34.558891 
14.092291 -38.184708 59.050907 
13.947309 -44.896126 20.781975 
12.715904 -3.929119 56.404377 
12.289618 2.395680 66.052734 
14.842554 -41.725895 61.276371 
16.244244 -43.382561 50.386700 
14.615009 -18.185579 80.708046 
12.257435 -7.938912 78.845291 
13.778202 -49.144745 56.108700 
13.094411 -13.448459 96.868027 
15.274392 -35.481037 33.967880 
13.488868 -13.926669 85.217712 
14.308056 1.427758 57.936962 
16.469143 -22.797979 90.174202 
12.731446 -45.001297 9.557203 
14.713409 -4.002804 52.498886 
15.055581 -30.084110 56.081848 
13.919873 -38.934536 18.597599 
13.510398 -17.163685 86.556503 
16.369352 5.528368 46.986652 
13.640471 -44.523682 5.299802 
15.452151 -6.977528 36.607151 
15.201182 -27.760103 44.326809 
13.769060 -55.980091 2.867142 
14.131376 -57.465336 -0.269343 
16.694271 -19.904116 85.177719 
16.913063 -38.407173 9.125161 
15.187149 5.227489 39.154636 
15.227388 -46.427834 13.518794 
14.973553 -39.082878 0.179334 
14.781042 -48.942249 7.736165 
14.581676 -38.579243 52.529190 
15.249798 -47.313602 29.935902 
14.926179 -64.487099 -0.293062 
15.422345 -11.541123 80.092018 
16.347580 -65.146255 1.310323 
15.991747 -5.984499 86.196022 
19.088133 -41.087967 59.728821 
16.834303 -61.737053 -0.103081 
17.851801 -42.357784 55.493561 
16.130775 -38.015408 49.654293 
15.737400 -59.142830 3.065667 
15.921268 -49.138546 1.265721 
16.844236 -2.616864 38.440071 
17.557392 -11.193267 54.454098 
17.076569 -9.347750 88.262398 
17.681410 -13.169962 96.271011 
17.459890 -9.709805 92.488190 
16.766981 -46.066113 17.852762 
16.679155 -9.566384 79.685448 
17.261816 -0.375795 49.846333 
16.749310 -31.184925 52.623856 
18.361935 -30.040491 62.496037 
18.092930 -47.714169 9.110637 
18.086485 -37.371410 39.613892 
19.971201 -36.577457 57.137390 
20.732563 -12.616186 69.064812 
18.994753 -16.122812 96.171715 
20.033375 -38.867851 -0.073519 
20.473717 -52.692783 0.278116 
21.284744 -61.357639 0.240306 
18.055330 -17.652512 73.669487 
19.574429 -36.982872 2.487583 
18.616350 -63.190166 1.242940 
20.058138 -41.638130 39.733738 
16.932196 -47.547199 36.896790 
18.099890 -10.881325 44.045761 
19.591976 -20.131933 76.487381 
18.720093 -10.716929 49.894585 
18.661386 -36.786678 31.718334 
19.392635 -29.180065 58.883640 
20.835409 -42.631168 6.202421 
21.221203 -53.763927 3.820042 
18.728428 -44.574326 14.379580 
23.070980 -8.361871 72.051811 
19.671410 -41.074005 13.612926 
20.434261 -20.106499 82.645714 
21.174185 -11.529985 92.539017 
20.998270 -28.856678 64.599991 
21.918041 -9.692341 83.405472 
21.191782 -21.074905 88.725334 
20.738052 -62.044712 1.481846 
22.458706 -15.606605 64.971428 
20.619898 -40.092640 32.442451 
21.953697 -23.246693 57.254391 
23.778236 -17.772949 66.874901 
23.223269 -21.990009 66.971924 
22.246496 -47.005901 1.468978 
22.647509 -12.814232 61.994118 
23.733538 -17.871368 80.817841 
28.310678 -24.366308 60.411488 
24.029306 -55.059429 0.491976 
24.191196 -14.418531 90.472328 
23.436050 -60.180733 1.363671 
24.839869 -9.169552 72.886795 
27.437246 -21.295675 67.965645 
26.977411 -10.982407 61.324383 
27.547146 -25.680387 64.175552 
24.734966 -12.365362 80.978760 
27.212751 -18.775774 67.951050 
27.632137 -16.448587 70.782578 
28.243654 -13.150444 70.724403 
28.988638 -11.334808 62.906189 
28.586212 -16.246059 58.900166 
31.472052 -16.569704 66.187057 
0.000000 0.000000 0.000000 
3 138 156 193 
3 156 187 193 
3 198 155 179 
3 164 155 198 
3 179 224 198 
3 199 248 187 
3 255 248 199 
3 278 277 262 
3 199 262 255 
3 138 128 141 
3 125 155 164 
3 123 129 108 
3 108 128 123 
3 129 125 164 
3 141 156 138 
3 123 125 129 
3 384 366 397 
3 187 271 193 
3 396 385 356 
3 356 271 337 
3 187 248 271 
3 262 290 255 
3 294 224 253 
3 248 255 290 
3 248 290 310 
3 310 271 248 
3 271 310 337 
3 262 277 290 
3 290 277 287 
3 337 396 356 
3 294 366 384 
3 384 397 406 
3 294 198 224 
3 346 396 337 
3 138 116 123 
3 382 385 397 
3 224 163 209 
3 179 163 224 
3 137 98 119 
3 98 137 117 
3 191 321 211 
3 191 193 321 
3 191 138 193 
3 137 155 125 
3 137 125 117 
3 155 137 119 
3 117 123 116 
3 179 155 119 
3 128 138 123 
3 130 116 138 
3 191 167 138 
3 125 123 117 
3 179 119 163 
3 231 253 224 
3 305 323 253 
3 370 323 305 
3 321 289 211 
3 341 289 321 
3 294 323 366 
3 253 323 294 
3 321 193 271 
3 366 370 397 
3 406 397 385 
3 382 397 370 
3 209 231 224 
3 305 253 231 
3 406 385 396 
3 271 356 321 
3 356 341 321 
3 323 370 366 
3 171 249 228 
3 249 208 241 
3 209 163 181 
3 231 209 226 
3 385 401 377 
3 165 161 118 
3 181 121 166 
3 166 172 201 
3 151 110 172 
3 166 151 172 
3 103 151 166 
3 103 110 151 
3 172 110 161 
3 110 118 161 
3 211 178 167 
3 167 178 131 
3 145 131 178 
3 130 167 131 
3 117 109 98 
3 98 109 63 
3 117 116 109 
3 178 241 208 
3 131 145 134 
3 145 180 134 
3 178 180 145 
3 178 208 180 
3 181 124 121 
3 124 119 96 
3 167 191 211 
3 232 201 172 
3 216 166 201 
3 181 166 216 
3 181 216 209 
3 181 163 124 
3 163 119 124 
3 171 165 118 
3 130 131 107 
3 63 109 107 
3 130 107 109 
3 167 130 138 
3 109 116 130 
3 249 250 228 
3 247 178 211 
3 178 247 241 
3 329 302 316 
3 302 283 232 
3 289 282 211 
3 282 247 211 
3 241 295 249 
3 247 295 241 
3 329 301 339 
3 232 254 201 
3 232 283 254 
3 362 283 302 
3 329 362 302 
3 377 363 341 
3 363 282 341 
3 341 282 289 
3 383 382 370 
3 383 370 305 
3 363 295 282 
3 295 247 282 
3 400 363 377 
3 400 295 363 
3 254 226 216 
3 257 226 254 
3 273 226 257 
3 347 305 273 
3 273 305 231 
3 232 316 302 
3 201 254 216 
3 216 226 209 
3 273 231 226 
3 401 385 383 
3 377 341 385 
3 382 383 385 
3 356 385 341 
3 250 249 267 
3 316 301 329 
3 269 172 232 
3 161 172 214 
3 251 172 269 
3 172 251 214 
3 214 165 161 
3 214 218 165 
3 230 228 218 
3 250 228 267 
3 218 228 165 
3 316 269 232 
3 267 230 300 
3 269 319 251 
3 319 316 300 
3 269 316 319 
3 300 316 301 
3 228 230 267 
3 300 301 267 
3 218 214 200 
3 300 307 345 
3 230 307 300 
3 205 200 197 
3 203 205 197 
3 205 204 239 
3 236 205 239 
3 252 204 213 
3 197 220 203 
3 252 213 259 
3 207 238 213 
3 205 236 214 
3 214 236 251 
3 200 205 214 
3 203 207 213 
3 204 203 213 
3 213 238 259 
3 205 203 204 
3 207 245 238 
3 239 204 252 
3 265 263 222 
3 222 246 220 
3 229 245 215 
3 212 200 218 
3 225 212 218 
3 225 218 230 
3 212 197 200 
3 212 220 197 
3 246 222 237 
3 220 212 225 
3 222 220 225 
3 200 196 197 
3 197 196 200 
3 229 215 233 
3 215 221 233 
3 221 215 220 
3 258 229 246 
3 246 229 233 
3 207 203 220 
3 215 207 220 
3 246 221 220 
3 245 207 215 
3 221 246 233 
3 222 234 237 
3 263 260 222 
3 260 243 222 
3 243 234 222 
3 243 256 234 
3 266 234 256 
3 345 317 311 
3 252 319 236 
3 252 317 319 
3 317 345 300 
3 259 311 317 
3 239 252 236 
3 296 345 311 
3 245 274 238 
3 238 274 259 
3 236 319 251 
3 274 315 311 
3 274 311 259 
3 296 311 315 
3 317 300 319 
3 259 317 252 
3 270 263 265 
3 265 222 225 
3 265 225 230 
3 279 264 296 
3 296 315 284 
3 307 314 265 
3 230 307 265 
3 314 296 270 
3 307 345 314 
3 345 296 314 
3 314 270 265 
3 270 264 237 
3 296 264 270 
3 284 229 279 
3 263 270 237 
3 237 264 246 
3 264 258 246 
3 229 264 279 
3 268 245 229 
3 284 268 229 
3 229 258 264 
3 296 284 279 
3 315 268 284 
3 274 268 315 
3 268 274 245 
3 279 284 280 
3 237 266 263 
3 266 237 234 
3 263 266 260 
3 266 256 260 
3 256 243 260 
3 249 171 208 
3 121 54 103 
3 103 166 121 
3 171 118 113 
3 208 171 180 
3 171 113 180 
3 96 119 98 
3 96 54 121 
3 118 77 99 
3 113 134 180 
3 113 99 60 
3 99 45 60 
3 77 45 99 
3 131 101 107 
3 131 134 101 
3 134 95 101 
3 134 60 95 
3 134 113 60 
3 42 45 77 
3 42 77 118 
3 42 118 110 
3 54 96 36 
3 96 98 36 
3 98 63 36 
3 101 95 49 
3 124 96 121 
3 101 63 107 
3 103 42 110 
3 103 54 42 
3 165 171 228 
3 118 99 113 
3 45 42 26 
3 19 28 26 
3 20 54 36 
3 19 17 28 
3 68 34 63 
3 20 19 26 
3 68 101 49 
3 49 44 68 
3 68 63 101 
3 26 42 54 
3 26 28 45 
3 26 54 20 
3 28 60 45 
3 60 28 17 
3 60 49 95 
3 49 60 17 
3 17 27 49 
3 12 7 4 
3 7 13 14 
3 22 44 21 
3 21 44 27 
3 14 13 22 
3 13 29 22 
3 7 12 13 
3 29 13 34 
3 17 11 9 
3 9 11 4 
3 10 21 27 
3 29 44 22 
3 9 10 27 
3 9 27 17 
3 9 0 10 
3 4 0 9 
3 20 11 19 
3 27 44 49 
3 63 34 13 
3 63 13 36 
3 36 13 12 
3 36 12 20 
3 68 44 29 
3 19 11 17 
3 20 12 11 
3 34 68 29 
3 10 0 5 
3 10 5 15 
3 4 11 12 
3 4 1 0 
3 1 4 7 
3 22 21 24 
3 16 3 8 
3 16 2 3 
3 33 15 23 
3 24 8 14 
3 24 25 8 
3 21 25 24 
3 25 21 33 
3 0 1 2 
3 1 3 2 
3 1 8 3 
3 7 8 1 
3 7 14 8 
3 15 21 10 
3 16 18 2 
3 18 6 2 
3 33 23 31 
3 23 6 31 
3 6 18 31 
3 8 25 16 
3 33 59 25 
3 16 25 70 
3 0 6 5 
3 15 33 21 
3 22 24 14 
3 0 2 6 
3 23 15 5 
3 6 23 5 
3 25 59 70 
3 59 33 31 
3 85 31 92 
3 39 16 70 
3 18 56 31 
3 59 31 85 
3 41 56 18 
3 85 88 59 
3 56 90 31 
3 92 97 87 
3 65 80 62 
3 65 62 53 
3 70 65 53 
3 70 53 39 
3 39 41 18 
3 87 65 70 
3 70 59 88 
3 39 18 16 
3 87 97 65 
3 80 65 97 
3 87 70 88 
3 92 31 90 
3 85 143 88 
3 143 87 88 
3 122 92 87 
3 122 87 143 
3 92 122 85 
3 85 122 143 
3 92 90 97 
3 90 56 80 
3 80 97 100 
3 90 80 100 
3 97 90 100 
3 56 41 62 
3 80 56 72 
3 72 56 62 
3 62 80 72 
3 41 53 46 
3 41 46 62 
3 62 46 53 
3 53 41 43 
3 53 43 39 
3 41 39 43 
3 267 339 301 
3 283 322 254 
3 401 405 377 
3 367 339 295 
3 367 295 400 
3 249 295 339 
3 367 329 339 
3 378 305 347 
3 347 273 257 
3 254 322 257 
3 322 283 387 
3 430 383 378 
3 383 305 378 
3 405 400 377 
3 405 367 400 
3 362 474 451 
3 474 486 451 
3 451 486 471 
3 439 441 473 
3 471 440 451 
3 403 387 283 
3 403 440 441 
3 378 347 387 
3 405 430 439 
3 407 329 367 
3 471 473 441 
3 387 347 322 
3 322 347 257 
3 439 430 441 
3 430 387 441 
3 430 378 387 
3 383 430 405 
3 403 283 362 
3 362 451 403 
3 451 440 403 
3 441 440 471 
3 441 387 403 
3 329 407 362 
3 407 474 362 
3 412 367 405 
3 367 412 419 
3 419 474 407 
3 407 367 419 
3 383 405 401 
3 249 339 267 
3 412 405 428 
3 483 474 470 
3 428 450 412 
3 428 405 439 
3 412 461 419 
3 471 486 473 
3 486 483 492 
3 474 483 486 
3 474 419 470 
3 486 492 473 
3 428 439 443 
3 468 439 473 
3 443 439 468 
3 450 455 412 
3 479 461 455 
3 455 450 476 
3 482 450 490 
3 498 496 495 
3 476 450 482 
3 490 488 496 
3 493 470 461 
3 412 455 461 
3 493 498 494 
3 450 468 490 
3 468 488 490 
3 443 450 428 
3 455 476 479 
3 494 495 483 
3 495 492 483 
3 443 468 450 
3 461 479 493 
3 492 495 488 
3 495 496 488 
3 483 493 494 
3 498 495 494 
3 470 419 461 
3 488 468 473 
3 483 470 493 
3 492 488 473 
3 498 493 489 
3 394 464 449 
3 497 449 478 
3 484 449 497 
3 491 431 484 
3 431 491 398 
3 482 478 464 
3 446 476 464 
3 497 478 490 
3 478 482 490 
3 498 497 496 
3 497 498 484 
3 497 490 496 
3 484 431 449 
3 353 472 446 
3 398 472 353 
3 449 464 478 
3 394 446 464 
3 394 353 446 
3 472 489 480 
3 476 480 479 
3 464 476 482 
3 480 493 479 
3 480 489 493 
3 480 446 472 
3 480 476 446 
3 433 449 431 
3 389 449 433 
3 484 498 491 
3 491 498 489 
3 472 491 489 
3 398 491 472 
3 389 394 449 
3 388 402 431 
3 350 398 353 
3 338 398 350 
3 353 394 327 
3 431 359 388 
3 398 359 431 
3 338 359 398 
3 431 402 433 
3 338 350 340 
3 364 355 373 
3 355 338 340 
3 402 373 433 
3 433 373 389 
3 327 394 389 
3 389 355 340 
3 373 355 389 
3 353 306 350 
3 306 353 327 
3 340 327 389 
3 309 340 350 
3 350 306 309 
3 340 309 304 
3 327 340 304 
3 306 327 304 
3 309 306 304 
3 355 325 338 
3 359 338 355 
3 355 338 325 
3 364 388 359 
3 364 359 344 
3 359 355 336 
3 344 359 336 
3 355 364 336 
3 364 344 336 
3 331 344 336 
3 336 344 331 
3 360 388 364 
3 364 373 388 
3 352 360 364 
3 388 360 352 
3 352 364 388 
3 373 402 391 
3 388 373 391 
3 391 402 388 
3 183 106 142 
3 144 154 79 
3 194 199 185 
3 104 144 79 
3 112 108 69 
3 73 115 156 
3 69 73 141 
3 69 141 112 
3 106 183 115 
3 154 227 190 
3 227 240 194 
3 102 108 120 
3 278 262 240 
3 278 240 235 
3 244 261 278 
3 195 219 175 
3 135 104 102 
3 156 183 199 
3 144 162 154 
3 162 219 154 
3 154 219 242 
3 129 164 152 
3 156 199 187 
3 112 141 128 
3 199 194 240 
3 199 240 262 
3 195 244 219 
3 244 242 219 
3 244 278 242 
3 242 278 235 
3 112 128 108 
3 129 152 120 
3 108 129 120 
3 190 126 154 
3 50 69 76 
3 76 102 66 
3 190 227 194 
3 185 199 183 
3 102 104 66 
3 135 144 104 
3 142 185 183 
3 73 156 141 
3 183 156 115 
3 154 235 227 
3 227 235 240 
3 144 135 162 
3 69 108 76 
3 175 162 135 
3 102 175 135 
3 242 235 154 
3 152 102 120 
3 175 219 162 
3 261 244 195 
3 164 195 152 
3 195 198 261 
3 108 102 76 
3 102 152 175 
3 175 152 195 
3 198 195 164 
3 48 94 78 
3 30 35 32 
3 81 105 89 
3 89 105 94 
3 75 81 89 
3 73 50 71 
3 69 50 73 
3 104 79 66 
3 79 154 82 
3 154 126 82 
3 50 76 66 
3 71 52 73 
3 142 106 83 
3 52 83 73 
3 82 94 48 
3 38 30 32 
3 38 32 40 
3 38 52 51 
3 38 48 30 
3 127 94 126 
3 52 61 83 
3 91 114 83 
3 91 89 127 
3 127 89 94 
3 52 50 51 
3 127 114 91 
3 127 126 190 
3 51 66 38 
3 38 66 79 
3 79 48 38 
3 52 40 61 
3 38 40 52 
3 66 51 50 
3 52 71 50 
3 83 106 115 
3 83 115 73 
3 160 127 190 
3 160 190 194 
3 114 142 83 
3 79 82 48 
3 94 82 126 
3 160 194 185 
3 185 142 160 
3 114 127 160 
3 114 160 142 
3 170 136 157 
3 74 132 150 
3 74 150 140 
3 32 35 47 
3 37 48 58 
3 30 48 37 
3 58 48 78 
3 58 78 86 
3 55 35 30 
3 93 55 84 
3 57 35 55 
3 157 94 105 
3 94 157 78 
3 75 57 81 
3 57 75 47 
3 47 35 57 
3 170 182 132 
3 67 132 74 
3 67 86 132 
3 86 136 132 
3 139 158 170 
3 139 133 158 
3 139 93 133 
3 133 148 158 
3 133 84 140 
3 133 140 148 
3 93 84 133 
3 111 157 136 
3 139 170 157 
3 74 37 67 
3 37 58 67 
3 67 58 86 
3 111 78 157 
3 47 64 40 
3 40 32 47 
3 89 91 64 
3 75 64 47 
3 75 89 64 
3 61 40 64 
3 64 91 83 
3 61 64 83 
3 132 182 184 
3 84 74 140 
3 37 55 30 
3 184 158 148 
3 37 74 84 
3 55 37 84 
3 105 93 139 
3 57 55 93 
3 81 57 93 
3 105 81 93 
3 157 105 139 
3 111 86 78 
3 111 136 86 
3 158 184 182 
3 170 158 182 
3 136 170 132 
3 192 217 148 
3 153 140 150 
3 169 140 153 
3 132 168 150 
3 184 148 210 
3 132 184 210 
3 153 146 169 
3 223 217 192 
3 210 148 217 
3 217 223 174 
3 192 140 176 
3 147 159 174 
3 189 174 168 
3 159 168 174 
3 150 159 153 
3 168 132 186 
3 150 168 159 
3 140 192 148 
3 147 153 159 
3 169 176 140 
3 186 132 189 
3 217 189 210 
3 189 132 210 
3 186 189 168 
3 189 217 174 
3 149 188 173 
3 149 169 146 
3 223 188 149 
3 192 206 223 
3 169 149 173 
3 153 147 146 
3 188 223 202 
3 223 206 202 
3 149 147 174 
3 149 174 223 
3 202 176 188 
3 176 177 188 
3 177 176 169 
3 146 147 149 
3 192 176 202 
3 188 177 173 
3 206 192 202 
3 169 173 177 
3 413 437 421 
3 354 332 299 
3 416 381 415 
3 354 365 381 
3 275 299 303 
3 276 281 297 
3 281 276 275 
3 462 445 460 
3 438 444 409 
3 460 437 462 
3 293 342 346 
3 346 342 386 
3 409 386 438 
3 275 298 299 
3 276 297 293 
3 293 297 342 
3 299 298 328 
3 298 275 276 
3 286 277 278 
3 286 287 277 
3 287 288 290 
3 288 310 290 
3 278 261 272 
3 313 326 333 
3 313 333 369 
3 313 393 365 
3 310 293 346 
3 318 313 365 
3 286 318 328 
3 409 406 396 
3 294 384 334 
3 384 406 444 
3 406 409 444 
3 310 346 337 
3 346 409 396 
3 288 276 293 
3 276 288 287 
3 298 276 287 
3 288 293 310 
3 326 272 333 
3 272 285 333 
3 313 278 326 
3 278 272 326 
3 291 318 286 
3 291 313 318 
3 286 278 291 
3 334 285 294 
3 354 328 365 
3 354 299 328 
3 462 438 445 
3 416 415 460 
3 386 342 368 
3 381 365 415 
3 346 386 409 
3 298 286 328 
3 415 437 460 
3 328 318 365 
3 298 287 286 
3 365 393 415 
3 462 444 438 
3 437 393 421 
3 437 413 462 
3 421 374 413 
3 313 369 393 
3 421 369 374 
3 384 444 413 
3 333 285 374 
3 261 198 285 
3 413 444 462 
3 413 334 384 
3 334 413 374 
3 437 415 393 
3 393 369 421 
3 374 285 334 
3 333 374 369 
3 285 198 294 
3 272 261 285 
3 313 291 278 
3 312 308 292 
3 330 349 320 
3 410 445 438 
3 410 438 386 
3 332 354 381 
3 303 299 332 
3 292 275 303 
3 281 275 292 
3 368 348 410 
3 368 410 386 
3 348 368 324 
3 332 381 380 
3 320 312 292 
3 434 445 425 
3 380 330 332 
3 399 434 392 
3 348 425 410 
3 392 425 351 
3 434 399 357 
3 303 332 330 
3 348 324 312 
3 348 312 351 
3 292 303 320 
3 330 320 303 
3 416 434 380 
3 434 460 445 
3 434 357 380 
3 357 330 380 
3 392 434 425 
3 351 425 348 
3 410 425 445 
3 434 416 460 
3 297 324 342 
3 342 324 368 
3 297 308 324 
3 381 416 380 
3 357 399 330 
3 372 330 399 
3 320 335 312 
3 324 308 312 
3 281 292 308 
3 297 281 308 
3 447 442 422 
3 420 414 408 
3 411 420 390 
3 465 469 467 
3 467 447 465 
3 422 408 424 
3 420 469 465 
3 447 422 424 
3 477 458 467 
3 399 458 448 
3 372 399 448 
3 372 448 404 
3 376 375 392 
3 459 392 375 
3 375 335 371 
3 349 330 358 
3 358 330 372 
3 320 349 371 
3 320 371 335 
3 375 376 335 
3 420 463 469 
3 467 459 442 
3 469 477 467 
3 463 477 469 
3 404 463 420 
3 420 411 404 
3 411 379 404 
3 395 361 390 
3 422 395 390 
3 371 361 395 
3 442 395 422 
3 426 371 395 
3 442 426 395 
3 459 426 442 
3 390 379 411 
3 390 358 379 
3 390 361 358 
3 463 448 458 
3 463 458 477 
3 404 448 463 
3 358 372 379 
3 343 312 335 
3 376 343 335 
3 376 351 343 
3 392 351 376 
3 312 343 351 
3 459 458 392 
3 467 442 447 
3 422 390 408 
3 467 458 459 
3 371 349 361 
3 459 375 426 
3 426 375 371 
3 361 349 358 
3 392 458 399 
3 404 379 372 
3 408 390 420 
3 466 447 435 
3 456 420 465 
3 414 424 408 
3 424 414 417 
3 453 418 436 
3 418 417 436 
3 423 452 453 
3 481 485 453 
3 452 481 453 
3 465 447 466 
3 481 456 465 
3 452 456 481 
3 424 435 447 
3 481 466 485 
3 424 417 435 
3 420 456 423 
3 436 417 423 
3 414 420 423 
3 423 456 452 
3 436 423 453 
3 466 481 465 
3 417 414 423 
3 454 485 487 
3 487 466 475 
3 454 457 432 
3 475 435 457 
3 466 435 475 
3 417 429 435 
3 417 427 429 
3 418 427 417 
3 487 485 466 
3 435 429 432 
3 485 454 453 
3 454 432 418 
3 453 454 418 
3 432 457 435 
3 457 454 475 
3 432 427 418 
3 427 432 429 
3 475 454 487 
