ply
format ascii 1.0
comment created by MATLAB plywrite
element vertex 402
property float x
property float y
property float z
element face 800
property list uchar short vertex_indices
end_header
-0.333333 0.000000 -0.166667 
-0.333333 0.000000 0.166667 
-0.329229 0.000000 -0.218811 
-0.329229 0.000000 0.218811 
-0.317019 -0.103006 -0.166667 
-0.317019 -0.103006 0.166667 
-0.317019 0.000000 -0.269672 
-0.317019 0.000000 0.269672 
-0.317019 0.103006 -0.166667 
-0.317019 0.103006 0.166667 
-0.313116 -0.101737 -0.218811 
-0.313116 -0.101737 0.218811 
-0.313116 0.101737 -0.218811 
-0.313116 0.101737 0.218811 
-0.301503 -0.097964 -0.269672 
-0.301503 -0.097964 0.269672 
-0.301503 0.097964 -0.269672 
-0.301503 0.097964 0.269672 
-0.297002 0.000000 -0.317997 
-0.297002 0.000000 0.317997 
-0.282466 -0.091779 -0.317997 
-0.282466 -0.091779 0.317997 
-0.282466 0.091779 -0.317997 
-0.282466 0.091779 0.317997 
-0.269672 -0.195928 -0.166667 
-0.269672 -0.195928 0.166667 
-0.269672 0.000000 -0.362595 
-0.269672 0.000000 0.362595 
-0.269672 0.195928 -0.166667 
-0.269672 0.195928 0.166667 
-0.266352 -0.193516 -0.218811 
-0.266352 -0.193516 0.218811 
-0.266352 0.193516 -0.218811 
-0.266352 0.193516 0.218811 
-0.256474 -0.186339 -0.269672 
-0.256474 -0.186339 0.269672 
-0.256474 -0.083333 -0.362595 
-0.256474 -0.083333 0.362595 
-0.256474 0.083333 -0.362595 
-0.256474 0.083333 0.362595 
-0.256474 0.186339 -0.269672 
-0.256474 0.186339 0.269672 
-0.240280 -0.174573 -0.317997 
-0.240280 -0.174573 0.317997 
-0.240280 0.174573 -0.317997 
-0.240280 0.174573 0.317997 
-0.235702 0.000000 -0.402369 
-0.235702 0.000000 0.402369 
-0.224166 -0.072836 -0.402369 
-0.224166 -0.072836 0.402369 
-0.224166 0.072836 -0.402369 
-0.224166 0.072836 0.402369 
-0.218169 -0.158509 -0.362595 
-0.218169 -0.158509 0.362595 
-0.218169 0.158509 -0.362595 
-0.218169 0.158509 0.362595 
-0.195928 -0.269672 -0.166667 
-0.195928 -0.269672 0.166667 
-0.195928 0.000000 -0.436339 
-0.195928 0.000000 0.436339 
-0.195928 0.269672 -0.166667 
-0.195928 0.269672 0.166667 
-0.193516 -0.266352 -0.218811 
-0.193516 -0.266352 0.218811 
-0.193516 0.266352 -0.218811 
-0.193516 0.266352 0.218811 
-0.190687 -0.138542 -0.402369 
-0.190687 -0.138542 0.402369 
-0.190687 0.138542 -0.402369 
-0.190687 0.138542 0.402369 
-0.186339 -0.256474 -0.269672 
-0.186339 -0.256474 0.269672 
-0.186339 -0.060545 -0.436339 
-0.186339 -0.060545 0.436339 
-0.186339 0.060545 -0.436339 
-0.186339 0.060545 0.436339 
-0.186339 0.256474 -0.269672 
-0.186339 0.256474 0.269672 
-0.174573 -0.240280 -0.317997 
-0.174573 -0.240280 0.317997 
-0.174573 0.240280 -0.317997 
-0.174573 0.240280 0.317997 
-0.158509 -0.218169 -0.362595 
-0.158509 -0.218169 0.362595 
-0.158509 -0.115164 -0.436339 
-0.158509 -0.115164 0.436339 
-0.158509 0.115164 -0.436339 
-0.158509 0.115164 0.436339 
-0.158509 0.218169 -0.362595 
-0.158509 0.218169 0.362595 
-0.151330 0.000000 -0.463669 
-0.151330 0.000000 0.463669 
-0.143924 -0.046764 -0.463669 
-0.143924 -0.046764 0.463669 
-0.143924 0.046764 -0.463669 
-0.143924 0.046764 0.463669 
-0.138542 -0.190687 -0.402369 
-0.138542 -0.190687 0.402369 
-0.138542 0.190687 -0.402369 
-0.138542 0.190687 0.402369 
-0.122429 -0.088950 -0.463669 
-0.122429 -0.088950 0.463669 
-0.122429 0.088950 -0.463669 
-0.122429 0.088950 0.463669 
-0.115164 -0.158509 -0.436339 
-0.115164 -0.158509 0.436339 
-0.115164 0.158509 -0.436339 
-0.115164 0.158509 0.436339 
-0.103006 -0.317019 -0.166667 
-0.103006 -0.317019 0.166667 
-0.103006 0.000000 -0.483685 
-0.103006 0.000000 0.483685 
-0.103006 0.317019 -0.166667 
-0.103006 0.317019 0.166667 
-0.101737 -0.313116 -0.218811 
-0.101737 -0.313116 0.218811 
-0.101737 0.313116 -0.218811 
-0.101737 0.313116 0.218811 
-0.097964 -0.301503 -0.269672 
-0.097964 -0.301503 0.269672 
-0.097964 -0.031830 -0.483685 
-0.097964 -0.031830 0.483685 
-0.097964 0.031830 -0.483685 
-0.097964 0.031830 0.483685 
-0.097964 0.301503 -0.269672 
-0.097964 0.301503 0.269672 
-0.091779 -0.282466 -0.317997 
-0.091779 -0.282466 0.317997 
-0.091779 0.282466 -0.317997 
-0.091779 0.282466 0.317997 
-0.088950 -0.122429 -0.463669 
-0.088950 -0.122429 0.463669 
-0.088950 0.122429 -0.463669 
-0.088950 0.122429 0.463669 
-0.083333 -0.256474 -0.362595 
-0.083333 -0.256474 0.362595 
-0.083333 -0.060545 -0.483685 
-0.083333 -0.060545 0.483685 
-0.083333 0.060545 -0.483685 
-0.083333 0.060545 0.483685 
-0.083333 0.256474 -0.362595 
-0.083333 0.256474 0.362595 
-0.072836 -0.224166 -0.402369 
-0.072836 -0.224166 0.402369 
-0.072836 0.224166 -0.402369 
-0.072836 0.224166 0.402369 
-0.060545 -0.186339 -0.436339 
-0.060545 -0.186339 0.436339 
-0.060545 -0.083333 -0.483685 
-0.060545 -0.083333 0.483685 
-0.060545 0.083333 -0.483685 
-0.060545 0.083333 0.483685 
-0.060545 0.186339 -0.436339 
-0.060545 0.186339 0.436339 
-0.052145 0.000000 -0.495896 
-0.052145 0.000000 0.495896 
-0.049593 -0.016114 -0.495896 
-0.049593 -0.016114 0.495896 
-0.049593 0.016114 -0.495896 
-0.049593 0.016114 0.495896 
-0.046764 -0.143924 -0.463669 
-0.046764 -0.143924 0.463669 
-0.046764 0.143924 -0.463669 
-0.046764 0.143924 0.463669 
-0.042186 -0.030650 -0.495896 
-0.042186 -0.030650 0.495896 
-0.042186 0.030650 -0.495896 
-0.042186 0.030650 0.495896 
-0.031830 -0.097964 -0.483685 
-0.031830 -0.097964 0.483685 
-0.031830 0.097964 -0.483685 
-0.031830 0.097964 0.483685 
-0.030650 -0.042186 -0.495896 
-0.030650 -0.042186 0.495896 
-0.030650 0.042186 -0.495896 
-0.030650 0.042186 0.495896 
-0.016114 -0.049593 -0.495896 
-0.016114 -0.049593 0.495896 
-0.016114 0.049593 -0.495896 
-0.016114 0.049593 0.495896 
0.000000 -0.333333 -0.166667 
0.000000 -0.333333 0.166667 
0.000000 -0.329229 -0.218811 
0.000000 -0.329229 0.218811 
0.000000 -0.317019 -0.269672 
0.000000 -0.317019 0.269672 
0.000000 -0.297002 -0.317997 
0.000000 -0.297002 0.317997 
0.000000 -0.269672 -0.362595 
0.000000 -0.269672 0.362595 
0.000000 -0.235702 -0.402369 
0.000000 -0.235702 0.402369 
0.000000 -0.195928 -0.436339 
0.000000 -0.195928 0.436339 
0.000000 -0.151330 -0.463669 
0.000000 -0.151330 0.463669 
0.000000 -0.103006 -0.483685 
0.000000 -0.103006 0.483685 
0.000000 -0.052145 -0.495896 
0.000000 -0.052145 0.495896 
-0.000000 0.000000 -0.500000 
-0.000000 0.000000 0.500000 
0.000000 0.052145 -0.495896 
0.000000 0.052145 0.495896 
0.000000 0.103006 -0.483685 
0.000000 0.103006 0.483685 
0.000000 0.151330 -0.463669 
0.000000 0.151330 0.463669 
0.000000 0.195928 -0.436339 
0.000000 0.195928 0.436339 
0.000000 0.235702 -0.402369 
0.000000 0.235702 0.402369 
0.000000 0.269672 -0.362595 
0.000000 0.269672 0.362595 
0.000000 0.297002 -0.317997 
0.000000 0.297002 0.317997 
0.000000 0.317019 -0.269672 
0.000000 0.317019 0.269672 
0.000000 0.329229 -0.218811 
0.000000 0.329229 0.218811 
0.000000 0.333333 -0.166667 
0.000000 0.333333 0.166667 
0.016114 -0.049593 -0.495896 
0.016114 -0.049593 0.495896 
0.016114 0.049593 -0.495896 
0.016114 0.049593 0.495896 
0.030650 -0.042186 -0.495896 
0.030650 -0.042186 0.495896 
0.030650 0.042186 -0.495896 
0.030650 0.042186 0.495896 
0.031830 -0.097964 -0.483685 
0.031830 -0.097964 0.483685 
0.031830 0.097964 -0.483685 
0.031830 0.097964 0.483685 
0.042186 -0.030650 -0.495896 
0.042186 -0.030650 0.495896 
0.042186 0.030650 -0.495896 
0.042186 0.030650 0.495896 
0.046764 -0.143924 -0.463669 
0.046764 -0.143924 0.463669 
0.046764 0.143924 -0.463669 
0.046764 0.143924 0.463669 
0.049593 -0.016114 -0.495896 
0.049593 -0.016114 0.495896 
0.049593 0.016114 -0.495896 
0.049593 0.016114 0.495896 
0.052145 0.000000 -0.495896 
0.052145 0.000000 0.495896 
0.060545 -0.186339 -0.436339 
0.060545 -0.186339 0.436339 
0.060545 -0.083333 -0.483685 
0.060545 -0.083333 0.483685 
0.060545 0.083333 -0.483685 
0.060545 0.083333 0.483685 
0.060545 0.186339 -0.436339 
0.060545 0.186339 0.436339 
0.072836 -0.224166 -0.402369 
0.072836 -0.224166 0.402369 
0.072836 0.224166 -0.402369 
0.072836 0.224166 0.402369 
0.083333 -0.256474 -0.362595 
0.083333 -0.256474 0.362595 
0.083333 -0.060545 -0.483685 
0.083333 -0.060545 0.483685 
0.083333 0.060545 -0.483685 
0.083333 0.060545 0.483685 
0.083333 0.256474 -0.362595 
0.083333 0.256474 0.362595 
0.088950 -0.122429 -0.463669 
0.088950 -0.122429 0.463669 
0.088950 0.122429 -0.463669 
0.088950 0.122429 0.463669 
0.091779 -0.282466 -0.317997 
0.091779 -0.282466 0.317997 
0.091779 0.282466 -0.317997 
0.091779 0.282466 0.317997 
0.097964 -0.301503 -0.269672 
0.097964 -0.301503 0.269672 
0.097964 -0.031830 -0.483685 
0.097964 -0.031830 0.483685 
0.097964 0.031830 -0.483685 
0.097964 0.031830 0.483685 
0.097964 0.301503 -0.269672 
0.097964 0.301503 0.269672 
0.101737 -0.313116 -0.218811 
0.101737 -0.313116 0.218811 
0.101737 0.313116 -0.218811 
0.101737 0.313116 0.218811 
0.103006 -0.317019 -0.166667 
0.103006 -0.317019 0.166667 
0.103006 0.000000 -0.483685 
0.103006 0.000000 0.483685 
0.103006 0.317019 -0.166667 
0.103006 0.317019 0.166667 
0.115164 -0.158509 -0.436339 
0.115164 -0.158509 0.436339 
0.115164 0.158509 -0.436339 
0.115164 0.158509 0.436339 
0.122429 -0.088950 -0.463669 
0.122429 -0.088950 0.463669 
0.122429 0.088950 -0.463669 
0.122429 0.088950 0.463669 
0.138542 -0.190687 -0.402369 
0.138542 -0.190687 0.402369 
0.138542 0.190687 -0.402369 
0.138542 0.190687 0.402369 
0.143924 -0.046764 -0.463669 
0.143924 -0.046764 0.463669 
0.143924 0.046764 -0.463669 
0.143924 0.046764 0.463669 
0.151330 0.000000 -0.463669 
0.151330 0.000000 0.463669 
0.158509 -0.218169 -0.362595 
0.158509 -0.218169 0.362595 
0.158509 -0.115164 -0.436339 
0.158509 -0.115164 0.436339 
0.158509 0.115164 -0.436339 
0.158509 0.115164 0.436339 
0.158509 0.218169 -0.362595 
0.158509 0.218169 0.362595 
0.174573 -0.240280 -0.317997 
0.174573 -0.240280 0.317997 
0.174573 0.240280 -0.317997 
0.174573 0.240280 0.317997 
0.186339 -0.256474 -0.269672 
0.186339 -0.256474 0.269672 
0.186339 -0.060545 -0.436339 
0.186339 -0.060545 0.436339 
0.186339 0.060545 -0.436339 
0.186339 0.060545 0.436339 
0.186339 0.256474 -0.269672 
0.186339 0.256474 0.269672 
0.190687 -0.138542 -0.402369 
0.190687 -0.138542 0.402369 
0.190687 0.138542 -0.402369 
0.190687 0.138542 0.402369 
0.193516 -0.266352 -0.218811 
0.193516 -0.266352 0.218811 
0.193516 0.266352 -0.218811 
0.193516 0.266352 0.218811 
0.195928 -0.269672 -0.166667 
0.195928 -0.269672 0.166667 
0.195928 0.000000 -0.436339 
0.195928 0.000000 0.436339 
0.195928 0.269672 -0.166667 
0.195928 0.269672 0.166667 
0.218169 -0.158509 -0.362595 
0.218169 -0.158509 0.362595 
0.218169 0.158509 -0.362595 
0.218169 0.158509 0.362595 
0.224166 -0.072836 -0.402369 
0.224166 -0.072836 0.402369 
0.224166 0.072836 -0.402369 
0.224166 0.072836 0.402369 
0.235702 0.000000 -0.402369 
0.235702 0.000000 0.402369 
0.240280 -0.174573 -0.317997 
0.240280 -0.174573 0.317997 
0.240280 0.174573 -0.317997 
0.240280 0.174573 0.317997 
0.256474 -0.186339 -0.269672 
0.256474 -0.186339 0.269672 
0.256474 -0.083333 -0.362595 
0.256474 -0.083333 0.362595 
0.256474 0.083333 -0.362595 
0.256474 0.083333 0.362595 
0.256474 0.186339 -0.269672 
0.256474 0.186339 0.269672 
0.266352 -0.193516 -0.218811 
0.266352 -0.193516 0.218811 
0.266352 0.193516 -0.218811 
0.266352 0.193516 0.218811 
0.269672 -0.195928 -0.166667 
0.269672 -0.195928 0.166667 
0.269672 0.000000 -0.362595 
0.269672 0.000000 0.362595 
0.269672 0.195928 -0.166667 
0.269672 0.195928 0.166667 
0.282466 -0.091779 -0.317997 
0.282466 -0.091779 0.317997 
0.282466 0.091779 -0.317997 
0.282466 0.091779 0.317997 
0.297002 0.000000 -0.317997 
0.297002 0.000000 0.317997 
0.301503 -0.097964 -0.269672 
0.301503 -0.097964 0.269672 
0.301503 0.097964 -0.269672 
0.301503 0.097964 0.269672 
0.313116 -0.101737 -0.218811 
0.313116 -0.101737 0.218811 
0.313116 0.101737 -0.218811 
0.313116 0.101737 0.218811 
0.317019 -0.103006 -0.166667 
0.317019 -0.103006 0.166667 
0.317019 0.000000 -0.269672 
0.317019 0.000000 0.269672 
0.317019 0.103006 -0.166667 
0.317019 0.103006 0.166667 
0.329229 0.000000 -0.218811 
0.329229 0.000000 0.218811 
0.333333 0.000000 -0.166667 
0.333333 0.000000 0.166667 
3 154 156 120 
3 110 120 92 
3 90 92 72 
3 58 72 48 
3 46 48 36 
3 26 36 20 
3 18 20 14 
3 6 14 10 
3 2 10 4 
3 400 396 397 
3 1 5 11 
3 3 11 15 
3 7 15 21 
3 19 21 37 
3 27 37 49 
3 47 49 73 
3 59 73 93 
3 91 93 121 
3 111 121 157 
3 155 157 201 
3 156 164 136 
3 120 136 100 
3 92 100 84 
3 72 84 66 
3 48 66 52 
3 36 52 42 
3 20 42 34 
3 14 34 30 
3 10 30 24 
3 396 376 377 
3 5 25 31 
3 11 31 35 
3 15 35 43 
3 21 43 53 
3 37 53 67 
3 49 67 85 
3 73 85 101 
3 93 101 137 
3 121 137 165 
3 157 165 201 
3 164 172 148 
3 136 148 130 
3 100 130 104 
3 84 104 96 
3 66 96 82 
3 52 82 78 
3 42 78 70 
3 34 70 62 
3 30 62 56 
3 376 344 345 
3 25 57 63 
3 31 63 71 
3 35 71 79 
3 43 79 83 
3 53 83 97 
3 67 97 105 
3 85 105 131 
3 101 131 149 
3 137 149 173 
3 165 173 201 
3 172 176 168 
3 148 168 160 
3 130 160 146 
3 104 146 142 
3 96 142 134 
3 82 134 126 
3 78 126 118 
3 70 118 114 
3 62 114 108 
3 344 292 293 
3 57 109 115 
3 63 115 119 
3 71 119 127 
3 79 127 135 
3 83 135 143 
3 97 143 147 
3 105 147 161 
3 131 161 169 
3 149 169 177 
3 173 177 201 
3 176 198 196 
3 168 196 194 
3 160 194 192 
3 146 192 190 
3 142 190 188 
3 134 188 186 
3 126 186 184 
3 118 184 182 
3 114 182 180 
3 292 220 221 
3 109 181 183 
3 115 183 185 
3 119 185 187 
3 127 187 189 
3 135 189 191 
3 143 191 193 
3 147 193 195 
3 161 195 197 
3 169 197 199 
3 177 199 201 
3 198 222 230 
3 196 230 238 
3 194 238 248 
3 192 248 256 
3 190 256 260 
3 188 260 272 
3 186 272 276 
3 184 276 284 
3 182 284 288 
3 220 112 113 
3 181 289 285 
3 183 285 277 
3 185 277 273 
3 187 273 261 
3 189 261 257 
3 191 257 249 
3 193 249 239 
3 195 239 231 
3 197 231 223 
3 199 223 201 
3 222 226 250 
3 230 250 268 
3 238 268 294 
3 248 294 302 
3 256 302 312 
3 260 312 320 
3 272 320 324 
3 276 324 336 
3 284 336 340 
3 112 60 61 
3 289 341 337 
3 285 337 325 
3 277 325 321 
3 273 321 313 
3 261 313 303 
3 257 303 295 
3 249 295 269 
3 239 269 251 
3 231 251 227 
3 223 227 201 
3 226 234 262 
3 250 262 298 
3 268 298 314 
3 294 314 332 
3 302 332 346 
3 312 346 356 
3 320 356 360 
3 324 360 368 
3 336 368 372 
3 60 28 29 
3 341 373 369 
3 337 369 361 
3 325 361 357 
3 321 357 347 
3 313 347 333 
3 303 333 315 
3 295 315 299 
3 269 299 263 
3 251 263 235 
3 227 235 201 
3 234 242 278 
3 262 278 306 
3 298 306 326 
3 314 326 350 
3 332 350 362 
3 346 362 378 
3 356 378 384 
3 360 384 388 
3 368 388 392 
3 28 8 9 
3 373 393 389 
3 369 389 385 
3 361 385 379 
3 357 379 363 
3 347 363 351 
3 333 351 327 
3 315 327 307 
3 299 307 279 
3 263 279 243 
3 235 243 201 
3 242 246 290 
3 278 290 310 
3 306 310 342 
3 326 342 354 
3 350 354 374 
3 362 374 382 
3 378 382 394 
3 384 394 398 
3 388 398 400 
3 8 0 1 
3 393 401 399 
3 389 399 395 
3 385 395 383 
3 379 383 375 
3 363 375 355 
3 351 355 343 
3 327 343 311 
3 307 311 291 
3 279 291 247 
3 243 247 201 
3 246 244 280 
3 290 280 308 
3 310 308 328 
3 342 328 352 
3 354 352 364 
3 374 364 380 
3 382 380 386 
3 394 386 390 
3 398 390 396 
3 0 4 5 
3 401 397 391 
3 399 391 387 
3 395 387 381 
3 383 381 365 
3 375 365 353 
3 355 353 329 
3 343 329 309 
3 311 309 281 
3 291 281 245 
3 247 245 201 
3 244 236 264 
3 280 264 300 
3 308 300 316 
3 328 316 334 
3 352 334 348 
3 364 348 358 
3 380 358 366 
3 386 366 370 
3 390 370 376 
3 4 24 25 
3 397 377 371 
3 391 371 367 
3 387 367 359 
3 381 359 349 
3 365 349 335 
3 353 335 317 
3 329 317 301 
3 309 301 265 
3 281 265 237 
3 245 237 201 
3 236 228 252 
3 264 252 270 
3 300 270 296 
3 316 296 304 
3 334 304 318 
3 348 318 322 
3 358 322 330 
3 366 330 338 
3 370 338 344 
3 24 56 57 
3 377 345 339 
3 371 339 331 
3 367 331 323 
3 359 323 319 
3 349 319 305 
3 335 305 297 
3 317 297 271 
3 301 271 253 
3 265 253 229 
3 237 229 201 
3 228 224 232 
3 252 232 240 
3 270 240 254 
3 296 254 258 
3 304 258 266 
3 318 266 274 
3 322 274 282 
3 330 282 286 
3 338 286 292 
3 56 108 109 
3 345 293 287 
3 339 287 283 
3 331 283 275 
3 323 275 267 
3 319 267 259 
3 305 259 255 
3 297 255 241 
3 271 241 233 
3 253 233 225 
3 229 225 201 
3 224 202 204 
3 232 204 206 
3 240 206 208 
3 254 208 210 
3 258 210 212 
3 266 212 214 
3 274 214 216 
3 282 216 218 
3 286 218 220 
3 108 180 181 
3 293 221 219 
3 287 219 217 
3 283 217 215 
3 275 215 213 
3 267 213 211 
3 259 211 209 
3 255 209 207 
3 241 207 205 
3 233 205 203 
3 225 203 201 
3 202 178 170 
3 204 170 162 
3 206 162 152 
3 208 152 144 
3 210 144 140 
3 212 140 128 
3 214 128 124 
3 216 124 116 
3 218 116 112 
3 180 288 289 
3 221 113 117 
3 219 117 125 
3 217 125 129 
3 215 129 141 
3 213 141 145 
3 211 145 153 
3 209 153 163 
3 207 163 171 
3 205 171 179 
3 203 179 201 
3 178 174 150 
3 170 150 132 
3 162 132 106 
3 152 106 98 
3 144 98 88 
3 140 88 80 
3 128 80 76 
3 124 76 64 
3 116 64 60 
3 288 340 341 
3 113 61 65 
3 117 65 77 
3 125 77 81 
3 129 81 89 
3 141 89 99 
3 145 99 107 
3 153 107 133 
3 163 133 151 
3 171 151 175 
3 179 175 201 
3 174 166 138 
3 150 138 102 
3 132 102 86 
3 106 86 68 
3 98 68 54 
3 88 54 44 
3 80 44 40 
3 76 40 32 
3 64 32 28 
3 340 372 373 
3 61 29 33 
3 65 33 41 
3 77 41 45 
3 81 45 55 
3 89 55 69 
3 99 69 87 
3 107 87 103 
3 133 103 139 
3 151 139 167 
3 175 167 201 
3 166 158 122 
3 138 122 94 
3 102 94 74 
3 86 74 50 
3 68 50 38 
3 54 38 22 
3 44 22 16 
3 40 16 12 
3 32 12 8 
3 372 392 393 
3 29 9 13 
3 33 13 17 
3 41 17 23 
3 45 23 39 
3 55 39 51 
3 69 51 75 
3 87 75 95 
3 103 95 123 
3 139 123 159 
3 167 159 201 
3 158 154 110 
3 122 110 90 
3 94 90 58 
3 74 58 46 
3 50 46 26 
3 38 26 18 
3 22 18 6 
3 16 6 2 
3 12 2 0 
3 392 400 401 
3 9 1 3 
3 13 3 7 
3 17 7 19 
3 23 19 27 
3 39 27 47 
3 51 47 59 
3 75 59 91 
3 95 91 111 
3 123 111 155 
3 159 155 201 
3 200 156 154 
3 154 120 110 
3 110 92 90 
3 90 72 58 
3 58 48 46 
3 46 36 26 
3 26 20 18 
3 18 14 6 
3 6 10 2 
3 2 4 0 
3 400 397 401 
3 1 11 3 
3 3 15 7 
3 7 21 19 
3 19 37 27 
3 27 49 47 
3 47 73 59 
3 59 93 91 
3 91 121 111 
3 111 157 155 
3 200 164 156 
3 156 136 120 
3 120 100 92 
3 92 84 72 
3 72 66 48 
3 48 52 36 
3 36 42 20 
3 20 34 14 
3 14 30 10 
3 10 24 4 
3 396 377 397 
3 5 31 11 
3 11 35 15 
3 15 43 21 
3 21 53 37 
3 37 67 49 
3 49 85 73 
3 73 101 93 
3 93 137 121 
3 121 165 157 
3 200 172 164 
3 164 148 136 
3 136 130 100 
3 100 104 84 
3 84 96 66 
3 66 82 52 
3 52 78 42 
3 42 70 34 
3 34 62 30 
3 30 56 24 
3 376 345 377 
3 25 63 31 
3 31 71 35 
3 35 79 43 
3 43 83 53 
3 53 97 67 
3 67 105 85 
3 85 131 101 
3 101 149 137 
3 137 173 165 
3 200 176 172 
3 172 168 148 
3 148 160 130 
3 130 146 104 
3 104 142 96 
3 96 134 82 
3 82 126 78 
3 78 118 70 
3 70 114 62 
3 62 108 56 
3 344 293 345 
3 57 115 63 
3 63 119 71 
3 71 127 79 
3 79 135 83 
3 83 143 97 
3 97 147 105 
3 105 161 131 
3 131 169 149 
3 149 177 173 
3 200 198 176 
3 176 196 168 
3 168 194 160 
3 160 192 146 
3 146 190 142 
3 142 188 134 
3 134 186 126 
3 126 184 118 
3 118 182 114 
3 114 180 108 
3 292 221 293 
3 109 183 115 
3 115 185 119 
3 119 187 127 
3 127 189 135 
3 135 191 143 
3 143 193 147 
3 147 195 161 
3 161 197 169 
3 169 199 177 
3 200 222 198 
3 198 230 196 
3 196 238 194 
3 194 248 192 
3 192 256 190 
3 190 260 188 
3 188 272 186 
3 186 276 184 
3 184 284 182 
3 182 288 180 
3 220 113 221 
3 181 285 183 
3 183 277 185 
3 185 273 187 
3 187 261 189 
3 189 257 191 
3 191 249 193 
3 193 239 195 
3 195 231 197 
3 197 223 199 
3 200 226 222 
3 222 250 230 
3 230 268 238 
3 238 294 248 
3 248 302 256 
3 256 312 260 
3 260 320 272 
3 272 324 276 
3 276 336 284 
3 284 340 288 
3 112 61 113 
3 289 337 285 
3 285 325 277 
3 277 321 273 
3 273 313 261 
3 261 303 257 
3 257 295 249 
3 249 269 239 
3 239 251 231 
3 231 227 223 
3 200 234 226 
3 226 262 250 
3 250 298 268 
3 268 314 294 
3 294 332 302 
3 302 346 312 
3 312 356 320 
3 320 360 324 
3 324 368 336 
3 336 372 340 
3 60 29 61 
3 341 369 337 
3 337 361 325 
3 325 357 321 
3 321 347 313 
3 313 333 303 
3 303 315 295 
3 295 299 269 
3 269 263 251 
3 251 235 227 
3 200 242 234 
3 234 278 262 
3 262 306 298 
3 298 326 314 
3 314 350 332 
3 332 362 346 
3 346 378 356 
3 356 384 360 
3 360 388 368 
3 368 392 372 
3 28 9 29 
3 373 389 369 
3 369 385 361 
3 361 379 357 
3 357 363 347 
3 347 351 333 
3 333 327 315 
3 315 307 299 
3 299 279 263 
3 263 243 235 
3 200 246 242 
3 242 290 278 
3 278 310 306 
3 306 342 326 
3 326 354 350 
3 350 374 362 
3 362 382 378 
3 378 394 384 
3 384 398 388 
3 388 400 392 
3 8 1 9 
3 393 399 389 
3 389 395 385 
3 385 383 379 
3 379 375 363 
3 363 355 351 
3 351 343 327 
3 327 311 307 
3 307 291 279 
3 279 247 243 
3 200 244 246 
3 246 280 290 
3 290 308 310 
3 310 328 342 
3 342 352 354 
3 354 364 374 
3 374 380 382 
3 382 386 394 
3 394 390 398 
3 398 396 400 
3 0 5 1 
3 401 391 399 
3 399 387 395 
3 395 381 383 
3 383 365 375 
3 375 353 355 
3 355 329 343 
3 343 309 311 
3 311 281 291 
3 291 245 247 
3 200 236 244 
3 244 264 280 
3 280 300 308 
3 308 316 328 
3 328 334 352 
3 352 348 364 
3 364 358 380 
3 380 366 386 
3 386 370 390 
3 390 376 396 
3 4 25 5 
3 397 371 391 
3 391 367 387 
3 387 359 381 
3 381 349 365 
3 365 335 353 
3 353 317 329 
3 329 301 309 
3 309 265 281 
3 281 237 245 
3 200 228 236 
3 236 252 264 
3 264 270 300 
3 300 296 316 
3 316 304 334 
3 334 318 348 
3 348 322 358 
3 358 330 366 
3 366 338 370 
3 370 344 376 
3 24 57 25 
3 377 339 371 
3 371 331 367 
3 367 323 359 
3 359 319 349 
3 349 305 335 
3 335 297 317 
3 317 271 301 
3 301 253 265 
3 265 229 237 
3 200 224 228 
3 228 232 252 
3 252 240 270 
3 270 254 296 
3 296 258 304 
3 304 266 318 
3 318 274 322 
3 322 282 330 
3 330 286 338 
3 338 292 344 
3 56 109 57 
3 345 287 339 
3 339 283 331 
3 331 275 323 
3 323 267 319 
3 319 259 305 
3 305 255 297 
3 297 241 271 
3 271 233 253 
3 253 225 229 
3 200 202 224 
3 224 204 232 
3 232 206 240 
3 240 208 254 
3 254 210 258 
3 258 212 266 
3 266 214 274 
3 274 216 282 
3 282 218 286 
3 286 220 292 
3 108 181 109 
3 293 219 287 
3 287 217 283 
3 283 215 275 
3 275 213 267 
3 267 211 259 
3 259 209 255 
3 255 207 241 
3 241 205 233 
3 233 203 225 
3 200 178 202 
3 202 170 204 
3 204 162 206 
3 206 152 208 
3 208 144 210 
3 210 140 212 
3 212 128 214 
3 214 124 216 
3 216 116 218 
3 218 112 220 
3 180 289 181 
3 221 117 219 
3 219 125 217 
3 217 129 215 
3 215 141 213 
3 213 145 211 
3 211 153 209 
3 209 163 207 
3 207 171 205 
3 205 179 203 
3 200 174 178 
3 178 150 170 
3 170 132 162 
3 162 106 152 
3 152 98 144 
3 144 88 140 
3 140 80 128 
3 128 76 124 
3 124 64 116 
3 116 60 112 
3 288 341 289 
3 113 65 117 
3 117 77 125 
3 125 81 129 
3 129 89 141 
3 141 99 145 
3 145 107 153 
3 153 133 163 
3 163 151 171 
3 171 175 179 
3 200 166 174 
3 174 138 150 
3 150 102 132 
3 132 86 106 
3 106 68 98 
3 98 54 88 
3 88 44 80 
3 80 40 76 
3 76 32 64 
3 64 28 60 
3 340 373 341 
3 61 33 65 
3 65 41 77 
3 77 45 81 
3 81 55 89 
3 89 69 99 
3 99 87 107 
3 107 103 133 
3 133 139 151 
3 151 167 175 
3 200 158 166 
3 166 122 138 
3 138 94 102 
3 102 74 86 
3 86 50 68 
3 68 38 54 
3 54 22 44 
3 44 16 40 
3 40 12 32 
3 32 8 28 
3 372 393 373 
3 29 13 33 
3 33 17 41 
3 41 23 45 
3 45 39 55 
3 55 51 69 
3 69 75 87 
3 87 95 103 
3 103 123 139 
3 139 159 167 
3 200 154 158 
3 158 110 122 
3 122 90 94 
3 94 58 74 
3 74 46 50 
3 50 26 38 
3 38 18 22 
3 22 6 16 
3 16 2 12 
3 12 0 8 
3 392 401 393 
3 9 3 13 
3 13 7 17 
3 17 19 23 
3 23 27 39 
3 39 47 51 
3 51 59 75 
3 75 91 95 
3 95 111 123 
3 123 155 159 
